<?xml version="1.0" encoding="UTF-8" standalone="no"?>
<!-- Created with Inkscape (http://www.inkscape.org/) -->

<svg
   xmlns:dc="http://purl.org/dc/elements/1.1/"
   xmlns:cc="http://creativecommons.org/ns#"
   xmlns:rdf="http://www.w3.org/1999/02/22-rdf-syntax-ns#"
   xmlns:svg="http://www.w3.org/2000/svg"
   xmlns="http://www.w3.org/2000/svg"
   xmlns:sodipodi="http://sodipodi.sourceforge.net/DTD/sodipodi-0.dtd"
   xmlns:inkscape="http://www.inkscape.org/namespaces/inkscape"
   width="744.09448819"
   height="1052.3622047"
   id="svg2"
   version="1.1"
   inkscape:version="0.48.4 r9939"
   sodipodi:docname="drawing.svg">
  <defs
     id="defs4">
    <inkscape:perspective
       sodipodi:type="inkscape:persp3d"
       inkscape:vp_x="0 : 526.18109 : 1"
       inkscape:vp_y="0 : 1000 : 0"
       inkscape:vp_z="744.09448 : 526.18109 : 1"
       inkscape:persp3d-origin="372.04724 : 350.78739 : 1"
       id="perspective2985" />
  </defs>
  <sodipodi:namedview
     id="base"
     pagecolor="#ffce9f"
     bordercolor="#666666"
     borderopacity="1.0"
     inkscape:pageopacity="1"
     inkscape:pageshadow="2"
     inkscape:zoom="0.35"
     inkscape:cx="-783.28823"
     inkscape:cy="825.96741"
     inkscape:document-units="px"
     inkscape:current-layer="layer1"
     showgrid="false"
     showguides="true"
     inkscape:guide-bbox="true"
     inkscape:window-width="1535"
     inkscape:window-height="876"
     inkscape:window-x="65"
     inkscape:window-y="24"
     inkscape:window-maximized="1" />
  <metadata
     id="metadata7">
    <rdf:RDF>
      <cc:Work
         rdf:about="">
        <dc:format>image/svg+xml</dc:format>
        <dc:type
           rdf:resource="http://purl.org/dc/dcmitype/StillImage" />
        <dc:title></dc:title>
      </cc:Work>
    </rdf:RDF>
  </metadata>
  <g
     inkscape:label="Layer 1"
     inkscape:groupmode="layer"
     id="layer1">
    <path
       sodipodi:type="star"
       style="fill:#ffff00;fill-rule:evenodd;stroke:#000000;stroke-width:1px;stroke-linecap:butt;stroke-linejoin:miter;stroke-opacity:1"
       id="path3057"
       sodipodi:sides="5"
       sodipodi:cx="-1805.7144"
       sodipodi:cy="-204.78067"
       sodipodi:r1="244.1311"
       sodipodi:r2="122.06556"
       sodipodi:arg1="0.96007036"
       sodipodi:arg2="1.5883889"
       inkscape:flatsided="false"
       inkscape:rounded="0"
       inkscape:randomized="0"
       d="M -1665.7144,-4.7806777 -1807.8617,-82.734 l -144.8016,72.9046343 30.2121,-159.2790443 -114.0826,-115.18572 160.8194,-20.48654 74.2947,-144.09333 69.1798,146.61767 159.9992,26.13115 -118.0639,111.10124 z"
       inkscape:transform-center-x="-0.49755832"
       inkscape:transform-center-y="-9.0010467"
       transform="matrix(0.3749129,0,0,0.40827257,813.11504,397.89277)" />
    <path
       transform="matrix(0.39686052,0,0,0.41627193,1327.8562,394.01779)"
       sodipodi:type="star"
       style="fill:#ffff00;fill-rule:evenodd;stroke:#000000;stroke-width:1px;stroke-linecap:butt;stroke-linejoin:miter;stroke-opacity:1"
       id="path3057-0"
       sodipodi:sides="5"
       sodipodi:cx="-1805.7144"
       sodipodi:cy="-204.78067"
       sodipodi:r1="244.1311"
       sodipodi:r2="122.06556"
       sodipodi:arg1="0.96007036"
       sodipodi:arg2="1.5883889"
       inkscape:flatsided="false"
       inkscape:rounded="0"
       inkscape:randomized="0"
       d="M -1665.7144,-4.7806777 -1807.8617,-82.734 l -144.8016,72.9046343 30.2121,-159.2790443 -114.0826,-115.18572 160.8194,-20.48654 74.2947,-144.09333 69.1798,146.61767 159.9992,26.13115 -118.0639,111.10124 z"
       inkscape:transform-center-x="-0.52671896"
       inkscape:transform-center-y="-9.1774098" />
    <path
       sodipodi:type="star"
       style="fill:#ffff00;fill-rule:evenodd;stroke:#000000;stroke-width:1px;stroke-linecap:butt;stroke-linejoin:miter;stroke-opacity:1"
       id="path3077"
       sodipodi:sides="5"
       sodipodi:cx="-1805.7144"
       sodipodi:cy="9.5050402"
       sodipodi:r1="248.11124"
       sodipodi:r2="124.05563"
       sodipodi:arg1="2.1843525"
       sodipodi:arg2="2.812671"
       inkscape:flatsided="false"
       inkscape:rounded="0"
       inkscape:randomized="0"
       d="m -1948.5715,212.36218 25.452,-162.784357 -119.6687,-113.251703 162.6822,-26.096854 70.7291,-148.808426 75.0911,146.655614 163.3817,21.283037 -116.2733,116.73501 30.2464,161.962069 -146.9521,-74.50941 z"
       inkscape:transform-center-x="0.4492257"
       inkscape:transform-center-y="-9.4133749"
       transform="matrix(0.39686052,0,0,0.41627193,847.6145,749.97036)" />
    <flowRoot
       xml:space="preserve"
       id="flowRoot3101"
       style="fill:black;stroke:none;stroke-opacity:1;stroke-width:1px;stroke-linejoin:miter;stroke-linecap:butt;fill-opacity:1;font-family:Sans;font-style:normal;font-weight:normal;font-size:40px;line-height:125%;letter-spacing:0px;word-spacing:0px"><flowRegion
         id="flowRegion3103"><rect
           id="rect3105"
           width="520"
           height="437.14285"
           x="-1217.1428"
           y="280.93362" /></flowRegion><flowPara
         id="flowPara3107"></flowPara></flowRoot>    <path
       sodipodi:type="star"
       style="fill:#ffff00;fill-rule:evenodd;stroke:#000000;stroke-width:1px;stroke-linecap:butt;stroke-linejoin:miter;stroke-opacity:1"
       id="path3077-5"
       sodipodi:sides="5"
       sodipodi:cx="-1805.7144"
       sodipodi:cy="9.5050402"
       sodipodi:r1="248.11124"
       sodipodi:r2="124.05563"
       sodipodi:arg1="2.1843525"
       sodipodi:arg2="2.812671"
       inkscape:flatsided="false"
       inkscape:rounded="0"
       inkscape:randomized="0"
       d="m -1948.5715,212.36218 25.452,-162.784357 -119.6687,-113.251703 162.6822,-26.096854 70.7291,-148.808426 75.0911,146.655614 163.3817,21.283037 -116.2733,116.73501 30.2464,161.962069 -146.9521,-74.50941 z"
       inkscape:transform-center-x="0.4491395"
       inkscape:transform-center-y="-9.4133802"
       transform="matrix(0.39686052,0,0,0.41627193,1331.0998,746.30088)" />
    <path
       sodipodi:type="star"
       style="fill:#ffff00;fill-rule:evenodd;stroke:#000000;stroke-width:1px;stroke-linecap:butt;stroke-linejoin:miter;stroke-opacity:1"
       id="path3057-7"
       sodipodi:sides="5"
       sodipodi:cx="-1805.7144"
       sodipodi:cy="-204.78067"
       sodipodi:r1="244.1311"
       sodipodi:r2="122.06556"
       sodipodi:arg1="0.96007036"
       sodipodi:arg2="1.5883889"
       inkscape:flatsided="false"
       inkscape:rounded="0"
       inkscape:randomized="0"
       d="M -1665.7144,-4.7806777 -1807.8617,-82.734 l -144.8016,72.9046343 30.2121,-159.2790443 -114.0826,-115.18572 160.8194,-20.48654 74.2947,-144.09333 69.1798,146.61767 159.9992,26.13115 -118.0639,111.10124 z"
       inkscape:transform-center-x="-0.2873583"
       inkscape:transform-center-y="-5.1716042"
       transform="matrix(0.21652004,0,0,0.23457536,667.38835,324.85436)" />
    <path
       sodipodi:type="star"
       style="fill:#ffff00;fill-rule:evenodd;stroke:#000000;stroke-width:1px;stroke-linecap:butt;stroke-linejoin:miter;stroke-opacity:1"
       id="path3057-7-1"
       sodipodi:sides="5"
       sodipodi:cx="-1805.7144"
       sodipodi:cy="-204.78067"
       sodipodi:r1="244.1311"
       sodipodi:r2="122.06556"
       sodipodi:arg1="0.96007036"
       sodipodi:arg2="1.5883889"
       inkscape:flatsided="false"
       inkscape:rounded="0"
       inkscape:randomized="0"
       d="M -1665.7144,-4.7806777 -1807.8617,-82.734 l -144.8016,72.9046343 30.2121,-159.2790443 -114.0826,-115.18572 160.8194,-20.48654 74.2947,-144.09333 69.1798,146.61767 159.9992,26.13115 -118.0639,111.10124 z"
       inkscape:transform-center-x="-0.28743443"
       inkscape:transform-center-y="-5.1716049"
       transform="matrix(0.21652004,0,0,0.23457536,862.98399,317.12359)" />
    <path
       sodipodi:type="star"
       style="fill:#ffff00;fill-rule:evenodd;stroke:#000000;stroke-width:1px;stroke-linecap:butt;stroke-linejoin:miter;stroke-opacity:1"
       id="path3057-7-1-6"
       sodipodi:sides="5"
       sodipodi:cx="-1805.7144"
       sodipodi:cy="-204.78067"
       sodipodi:r1="244.1311"
       sodipodi:r2="122.06556"
       sodipodi:arg1="0.96007036"
       sodipodi:arg2="1.5883889"
       inkscape:flatsided="false"
       inkscape:rounded="0"
       inkscape:randomized="0"
       d="M -1665.7144,-4.7806777 -1807.8617,-82.734 l -144.8016,72.9046343 30.2121,-159.2790443 -114.0826,-115.18572 160.8194,-20.48654 74.2947,-144.09333 69.1798,146.61767 159.9992,26.13115 -118.0639,111.10124 z"
       inkscape:transform-center-x="-0.28730879"
       inkscape:transform-center-y="-5.171602"
       transform="matrix(0.21652004,0,0,0.23457536,1002.452,483.63237)" />
    <path
       sodipodi:type="star"
       style="fill:#ffff00;fill-rule:evenodd;stroke:#000000;stroke-width:1px;stroke-linecap:butt;stroke-linejoin:miter;stroke-opacity:1"
       id="path3057-7-1-61"
       sodipodi:sides="5"
       sodipodi:cx="-1805.7144"
       sodipodi:cy="-204.78067"
       sodipodi:r1="244.1311"
       sodipodi:r2="122.06556"
       sodipodi:arg1="0.96007036"
       sodipodi:arg2="1.5883889"
       inkscape:flatsided="false"
       inkscape:rounded="0"
       inkscape:randomized="0"
       d="M -1665.7144,-4.7806777 -1807.8617,-82.734 l -144.8016,72.9046343 30.2121,-159.2790443 -114.0826,-115.18572 160.8194,-20.48654 74.2947,-144.09333 69.1798,146.61767 159.9992,26.13115 -118.0639,111.10124 z"
       inkscape:transform-center-x="-0.28732805"
       inkscape:transform-center-y="-5.1716005"
       transform="matrix(0.21652004,0,0,0.23457536,1001.3181,645.38374)" />
    <path
       sodipodi:type="star"
       style="fill:#ffff00;fill-rule:evenodd;stroke:#000000;stroke-width:1px;stroke-linecap:butt;stroke-linejoin:miter;stroke-opacity:1"
       id="path3057-7-1-9"
       sodipodi:sides="5"
       sodipodi:cx="-1805.7144"
       sodipodi:cy="-204.78067"
       sodipodi:r1="244.1311"
       sodipodi:r2="122.06556"
       sodipodi:arg1="0.96007036"
       sodipodi:arg2="1.5883889"
       inkscape:flatsided="false"
       inkscape:rounded="0"
       inkscape:randomized="0"
       d="M -1665.7144,-4.7806777 -1807.8617,-82.734 l -144.8016,72.9046343 30.2121,-159.2790443 -114.0826,-115.18572 160.8194,-20.48654 74.2947,-144.09333 69.1798,146.61767 159.9992,26.13115 -118.0639,111.10124 z"
       inkscape:transform-center-x="-0.28735888"
       inkscape:transform-center-y="-5.1716079"
       transform="matrix(0.21652004,0,0,0.23457536,853.9128,785.72685)" />
    <path
       sodipodi:type="star"
       style="fill:#ffff00;fill-rule:evenodd;stroke:#000000;stroke-width:1px;stroke-linecap:butt;stroke-linejoin:miter;stroke-opacity:1"
       id="path3057-7-1-9-2"
       sodipodi:sides="5"
       sodipodi:cx="-1805.7144"
       sodipodi:cy="-204.78067"
       sodipodi:r1="244.1311"
       sodipodi:r2="122.06556"
       sodipodi:arg1="0.96007036"
       sodipodi:arg2="1.5883889"
       inkscape:flatsided="false"
       inkscape:rounded="0"
       inkscape:randomized="0"
       d="M -1665.7144,-4.7806777 -1807.8617,-82.734 l -144.8016,72.9046343 30.2121,-159.2790443 -114.0826,-115.18572 160.8194,-20.48654 74.2947,-144.09333 69.1798,146.61767 159.9992,26.13115 -118.0639,111.10124 z"
       inkscape:transform-center-x="-0.28738871"
       inkscape:transform-center-y="-5.1715988"
       transform="matrix(0.21652004,0,0,0.23457536,678.16031,784.53751)" />
    <path
       sodipodi:type="star"
       style="fill:#ffff00;fill-rule:evenodd;stroke:#000000;stroke-width:1px;stroke-linecap:butt;stroke-linejoin:miter;stroke-opacity:1"
       id="path3057-7-1-9-2-8"
       sodipodi:sides="5"
       sodipodi:cx="-1805.7144"
       sodipodi:cy="-204.78067"
       sodipodi:r1="244.1311"
       sodipodi:r2="122.06556"
       sodipodi:arg1="0.96007036"
       sodipodi:arg2="1.5883889"
       inkscape:flatsided="false"
       inkscape:rounded="0"
       inkscape:randomized="0"
       d="M -1665.7144,-4.7806777 -1807.8617,-82.734 l -144.8016,72.9046343 30.2121,-159.2790443 -114.0826,-115.18572 160.8194,-20.48654 74.2947,-144.09333 69.1798,146.61767 159.9992,26.13115 -118.0639,111.10124 z"
       inkscape:transform-center-x="-0.287367"
       inkscape:transform-center-y="-5.1716055"
       transform="matrix(0.21652004,0,0,0.23457536,527.35327,646.57309)" />
    <path
       sodipodi:type="star"
       style="fill:#ffff00;fill-rule:evenodd;stroke:#000000;stroke-width:1px;stroke-linecap:butt;stroke-linejoin:miter;stroke-opacity:1"
       id="path3057-7-1-9-2-8-7"
       sodipodi:sides="5"
       sodipodi:cx="-1805.7144"
       sodipodi:cy="-204.78067"
       sodipodi:r1="244.1311"
       sodipodi:r2="122.06556"
       sodipodi:arg1="0.96007036"
       sodipodi:arg2="1.5883889"
       inkscape:flatsided="false"
       inkscape:rounded="0"
       inkscape:randomized="0"
       d="M -1665.7144,-4.7806777 -1807.8617,-82.734 l -144.8016,72.9046343 30.2121,-159.2790443 -114.0826,-115.18572 160.8194,-20.48654 74.2947,-144.09333 69.1798,146.61767 159.9992,26.13115 -118.0639,111.10124 z"
       inkscape:transform-center-x="-0.28729723"
       inkscape:transform-center-y="-5.1716046"
       transform="matrix(0.21652004,0,0,0.23457536,529.62102,489.57911)" />
    <path
       sodipodi:type="star"
       style="fill:#ffff00;fill-rule:evenodd;stroke:#000000;stroke-width:1px;stroke-linecap:butt;stroke-linejoin:miter;stroke-opacity:1"
       id="path3057-7-1-9-2-8-75"
       sodipodi:sides="5"
       sodipodi:cx="-1805.7144"
       sodipodi:cy="-204.78067"
       sodipodi:r1="244.1311"
       sodipodi:r2="122.06556"
       sodipodi:arg1="0.96007036"
       sodipodi:arg2="1.5883889"
       inkscape:flatsided="false"
       inkscape:rounded="0"
       inkscape:randomized="0"
       d="M -1665.7144,-4.7806777 -1807.8617,-82.734 l -144.8016,72.9046343 30.2121,-159.2790443 -114.0826,-115.18572 160.8194,-20.48654 74.2947,-144.09333 69.1798,146.61767 159.9992,26.13115 -118.0639,111.10124 z"
       inkscape:transform-center-x="-0.14825056"
       inkscape:transform-center-y="-2.5793092"
       transform="matrix(0.1117398,0,0,0.11699284,341.12383,537.83712)" />
    <path
       sodipodi:type="star"
       style="fill:#ffff00;fill-rule:evenodd;stroke:#000000;stroke-width:1px;stroke-linecap:butt;stroke-linejoin:miter;stroke-opacity:1"
       id="path3057-7-1-9-2-8-75-1"
       sodipodi:sides="5"
       sodipodi:cx="-1805.7144"
       sodipodi:cy="-204.78067"
       sodipodi:r1="244.1311"
       sodipodi:r2="122.06556"
       sodipodi:arg1="0.96007036"
       sodipodi:arg2="1.5883889"
       inkscape:flatsided="false"
       inkscape:rounded="0"
       inkscape:randomized="0"
       d="M -1665.7144,-4.7806777 -1807.8617,-82.734 l -144.8016,72.9046343 30.2121,-159.2790443 -114.0826,-115.18572 160.8194,-20.48654 74.2947,-144.09333 69.1798,146.61767 159.9992,26.13115 -118.0639,111.10124 z"
       inkscape:transform-center-x="-0.14830211"
       inkscape:transform-center-y="-2.5793058"
       transform="matrix(0.1117398,0,0,0.11699284,584.34271,283.31657)" />
    <path
       sodipodi:type="star"
       style="fill:#ffff00;fill-rule:evenodd;stroke:#000000;stroke-width:1px;stroke-linecap:butt;stroke-linejoin:miter;stroke-opacity:1"
       id="path3057-7-1-9-2-8-75-1-1"
       sodipodi:sides="5"
       sodipodi:cx="-1805.7144"
       sodipodi:cy="-204.78067"
       sodipodi:r1="244.1311"
       sodipodi:r2="122.06556"
       sodipodi:arg1="0.96007036"
       sodipodi:arg2="1.5883889"
       inkscape:flatsided="false"
       inkscape:rounded="0"
       inkscape:randomized="0"
       d="M -1665.7144,-4.7806777 -1807.8617,-82.734 l -144.8016,72.9046343 30.2121,-159.2790443 -114.0826,-115.18572 160.8194,-20.48654 74.2947,-144.09333 69.1798,146.61767 159.9992,26.13115 -118.0639,111.10124 z"
       inkscape:transform-center-x="-0.14831327"
       inkscape:transform-center-y="-2.5793035"
       transform="matrix(0.1117398,0,0,0.11699284,812.25404,534.26908)" />
    <path
       sodipodi:type="star"
       style="fill:#ffff00;fill-rule:evenodd;stroke:#000000;stroke-width:1px;stroke-linecap:butt;stroke-linejoin:miter;stroke-opacity:1"
       id="path3057-7-1-9-2-8-75-1-1-8"
       sodipodi:sides="5"
       sodipodi:cx="-1805.7144"
       sodipodi:cy="-204.78067"
       sodipodi:r1="244.1311"
       sodipodi:r2="122.06556"
       sodipodi:arg1="0.96007036"
       sodipodi:arg2="1.5883889"
       inkscape:flatsided="false"
       inkscape:rounded="0"
       inkscape:randomized="0"
       d="M -1665.7144,-4.7806777 -1807.8617,-82.734 l -144.8016,72.9046343 30.2121,-159.2790443 -114.0826,-115.18572 160.8194,-20.48654 74.2947,-144.09333 69.1798,146.61767 159.9992,26.13115 -118.0639,111.10124 z"
       inkscape:transform-center-x="-0.14829148"
       inkscape:transform-center-y="-2.5792986"
       transform="matrix(0.1117398,0,0,0.11699284,584.34262,760.24527)" />
    <path
       sodipodi:type="star"
       style="fill:#ffff00;fill-rule:evenodd;stroke:#000000;stroke-width:1px;stroke-linecap:butt;stroke-linejoin:miter;stroke-opacity:1"
       id="path3057-7-1-9-8"
       sodipodi:sides="5"
       sodipodi:cx="-1805.7144"
       sodipodi:cy="-204.78067"
       sodipodi:r1="244.1311"
       sodipodi:r2="122.06556"
       sodipodi:arg1="0.96007036"
       sodipodi:arg2="1.5883889"
       inkscape:flatsided="false"
       inkscape:rounded="0"
       inkscape:randomized="0"
       d="M -1665.7144,-4.7806777 -1807.8617,-82.734 l -144.8016,72.9046343 30.2121,-159.2790443 -114.0826,-115.18572 160.8194,-20.48654 74.2947,-144.09333 69.1798,146.61767 159.9992,26.13115 -118.0639,111.10124 z"
       inkscape:transform-center-x="-0.22270688"
       inkscape:transform-center-y="-3.9933144"
       transform="matrix(0.16778378,0,0,0.18113008,690.0033,536.92368)" />
    <path
       sodipodi:type="star"
       style="fill:#ffff00;fill-rule:evenodd;stroke:#000000;stroke-width:1px;stroke-linecap:butt;stroke-linejoin:miter;stroke-opacity:1"
       id="path3057-7-1-9-8-6"
       sodipodi:sides="5"
       sodipodi:cx="-1805.7144"
       sodipodi:cy="-204.78067"
       sodipodi:r1="244.1311"
       sodipodi:r2="122.06556"
       sodipodi:arg1="0.96007036"
       sodipodi:arg2="1.5883889"
       inkscape:flatsided="false"
       inkscape:rounded="0"
       inkscape:randomized="0"
       d="M -1665.7144,-4.7806777 -1807.8617,-82.734 l -144.8016,72.9046343 30.2121,-159.2790443 -114.0826,-115.18572 160.8194,-20.48654 74.2947,-144.09333 69.1798,146.61767 159.9992,26.13115 -118.0639,111.10124 z"
       inkscape:transform-center-x="-0.22264094"
       inkscape:transform-center-y="-3.9933091"
       transform="matrix(0.16778378,0,0,0.18113008,687.73545,415.61015)" />
    <path
       sodipodi:type="star"
       style="fill:#ffff00;fill-rule:evenodd;stroke:#000000;stroke-width:1px;stroke-linecap:butt;stroke-linejoin:miter;stroke-opacity:1"
       id="path3057-7-1-9-8-8"
       sodipodi:sides="5"
       sodipodi:cx="-1805.7144"
       sodipodi:cy="-204.78067"
       sodipodi:r1="244.1311"
       sodipodi:r2="122.06556"
       sodipodi:arg1="0.96007036"
       sodipodi:arg2="1.5883889"
       inkscape:flatsided="false"
       inkscape:rounded="0"
       inkscape:randomized="0"
       d="M -1665.7144,-4.7806777 -1807.8617,-82.734 l -144.8016,72.9046343 30.2121,-159.2790443 -114.0826,-115.18572 160.8194,-20.48654 74.2947,-144.09333 69.1798,146.61767 159.9992,26.13115 -118.0639,111.10124 z"
       inkscape:transform-center-x="-0.22262692"
       inkscape:transform-center-y="-3.9933165"
       transform="matrix(0.16778378,0,0,0.18113008,688.86933,659.42656)" />
    <path
       sodipodi:type="star"
       style="fill:#ffff00;fill-rule:evenodd;stroke:#000000;stroke-width:1px;stroke-linecap:butt;stroke-linejoin:miter;stroke-opacity:1"
       id="path3057-7-1-9-8-2"
       sodipodi:sides="5"
       sodipodi:cx="-1805.7144"
       sodipodi:cy="-204.78067"
       sodipodi:r1="244.1311"
       sodipodi:r2="122.06556"
       sodipodi:arg1="0.96007036"
       sodipodi:arg2="1.5883889"
       inkscape:flatsided="false"
       inkscape:rounded="0"
       inkscape:randomized="0"
       d="M -1665.7144,-4.7806777 -1807.8617,-82.734 l -144.8016,72.9046343 30.2121,-159.2790443 -114.0826,-115.18572 160.8194,-20.48654 74.2947,-144.09333 69.1798,146.61767 159.9992,26.13115 -118.0639,111.10124 z"
       inkscape:transform-center-x="-0.22261987"
       inkscape:transform-center-y="-3.993325"
       transform="matrix(0.16778378,0,0,0.18113008,563.00783,541.68106)" />
    <path
       sodipodi:type="star"
       style="fill:#ffff00;fill-rule:evenodd;stroke:#000000;stroke-width:1px;stroke-linecap:butt;stroke-linejoin:miter;stroke-opacity:1"
       id="path3057-7-1-9-8-0"
       sodipodi:sides="5"
       sodipodi:cx="-1805.7144"
       sodipodi:cy="-204.78067"
       sodipodi:r1="244.1311"
       sodipodi:r2="122.06556"
       sodipodi:arg1="0.96007036"
       sodipodi:arg2="1.5883889"
       inkscape:flatsided="false"
       inkscape:rounded="0"
       inkscape:randomized="0"
       d="M -1665.7144,-4.7806777 -1807.8617,-82.734 l -144.8016,72.9046343 30.2121,-159.2790443 -114.0826,-115.18572 160.8194,-20.48654 74.2947,-144.09333 69.1798,146.61767 159.9992,26.13115 -118.0639,111.10124 z"
       inkscape:transform-center-x="-0.2227641"
       inkscape:transform-center-y="-3.9933179"
       transform="matrix(0.16778378,0,0,0.18113008,811.32929,540.49172)" />
    <path
       sodipodi:type="star"
       style="fill:#ffff00;fill-rule:evenodd;stroke:#000000;stroke-width:1px;stroke-linecap:butt;stroke-linejoin:miter;stroke-opacity:1"
       id="path3057-7-1-9-8-1"
       sodipodi:sides="5"
       sodipodi:cx="-1805.7144"
       sodipodi:cy="-204.78067"
       sodipodi:r1="244.1311"
       sodipodi:r2="122.06556"
       sodipodi:arg1="0.96007036"
       sodipodi:arg2="1.5883889"
       inkscape:flatsided="false"
       inkscape:rounded="0"
       inkscape:randomized="0"
       d="M -1665.7144,-4.7806777 -1807.8617,-82.734 l -144.8016,72.9046343 30.2121,-159.2790443 -114.0826,-115.18572 160.8194,-20.48654 74.2947,-144.09333 69.1798,146.61767 159.9992,26.13115 -118.0639,111.10124 z"
       inkscape:transform-center-x="-0.09974581"
       inkscape:transform-center-y="-1.9315024"
       transform="matrix(0.07517688,0,0,0.08760971,461.67463,528.19886)" />
    <path
       sodipodi:type="star"
       style="fill:#ffff00;fill-rule:evenodd;stroke:#000000;stroke-width:1px;stroke-linecap:butt;stroke-linejoin:miter;stroke-opacity:1"
       id="path3057-7-1-9-8-1-9"
       sodipodi:sides="5"
       sodipodi:cx="-1805.7144"
       sodipodi:cy="-204.78067"
       sodipodi:r1="244.1311"
       sodipodi:r2="122.06556"
       sodipodi:arg1="0.96007036"
       sodipodi:arg2="1.5883889"
       inkscape:flatsided="false"
       inkscape:rounded="0"
       inkscape:randomized="0"
       d="M -1665.7144,-4.7806777 -1807.8617,-82.734 l -144.8016,72.9046343 30.2121,-159.2790443 -114.0826,-115.18572 160.8194,-20.48654 74.2947,-144.09333 69.1798,146.61767 159.9992,26.13115 -118.0639,111.10124 z"
       inkscape:transform-center-x="-0.099799063"
       inkscape:transform-center-y="-1.9315046"
       transform="matrix(0.07517688,0,0,0.08760971,583.00062,531.17223)" />
    <path
       sodipodi:type="star"
       style="fill:#ffff00;fill-rule:evenodd;stroke:#000000;stroke-width:1px;stroke-linecap:butt;stroke-linejoin:miter;stroke-opacity:1"
       id="path3057-7-1-9-8-1-0"
       sodipodi:sides="5"
       sodipodi:cx="-1805.7144"
       sodipodi:cy="-204.78067"
       sodipodi:r1="244.1311"
       sodipodi:r2="122.06556"
       sodipodi:arg1="0.96007036"
       sodipodi:arg2="1.5883889"
       inkscape:flatsided="false"
       inkscape:rounded="0"
       inkscape:randomized="0"
       d="M -1665.7144,-4.7806777 -1807.8617,-82.734 l -144.8016,72.9046343 30.2121,-159.2790443 -114.0826,-115.18572 160.8194,-20.48654 74.2947,-144.09333 69.1798,146.61767 159.9992,26.13115 -118.0639,111.10124 z"
       inkscape:transform-center-x="-0.099772536"
       inkscape:transform-center-y="-1.9315043"
       transform="matrix(0.07517688,0,0,0.08760971,521.77069,571.61007)" />
    <path
       sodipodi:type="star"
       style="fill:#ffff00;fill-rule:evenodd;stroke:#000000;stroke-width:1px;stroke-linecap:butt;stroke-linejoin:miter;stroke-opacity:1"
       id="path3057-7-1-9-8-1-99"
       sodipodi:sides="5"
       sodipodi:cx="-1805.7144"
       sodipodi:cy="-204.78067"
       sodipodi:r1="244.1311"
       sodipodi:r2="122.06556"
       sodipodi:arg1="0.96007036"
       sodipodi:arg2="1.5883889"
       inkscape:flatsided="false"
       inkscape:rounded="0"
       inkscape:randomized="0"
       d="M -1665.7144,-4.7806777 -1807.8617,-82.734 l -144.8016,72.9046343 30.2121,-159.2790443 -114.0826,-115.18572 160.8194,-20.48654 74.2947,-144.09333 69.1798,146.61767 159.9992,26.13115 -118.0639,111.10124 z"
       inkscape:transform-center-x="-0.099802618"
       inkscape:transform-center-y="-1.9315104"
       transform="matrix(0.07517688,0,0,0.08760971,519.50294,453.86458)" />
    <path
       sodipodi:type="star"
       style="fill:#ffff00;fill-rule:evenodd;stroke:#000000;stroke-width:1px;stroke-linecap:butt;stroke-linejoin:miter;stroke-opacity:1"
       id="path3057-7-1-9-8-1-9-4"
       sodipodi:sides="5"
       sodipodi:cx="-1805.7144"
       sodipodi:cy="-204.78067"
       sodipodi:r1="244.1311"
       sodipodi:r2="122.06556"
       sodipodi:arg1="0.96007036"
       sodipodi:arg2="1.5883889"
       inkscape:flatsided="false"
       inkscape:rounded="0"
       inkscape:randomized="0"
       d="M -1665.7144,-4.7806777 -1807.8617,-82.734 l -144.8016,72.9046343 30.2121,-159.2790443 -114.0826,-115.18572 160.8194,-20.48654 74.2947,-144.09333 69.1798,146.61767 159.9992,26.13115 -118.0639,111.10124 z"
       inkscape:transform-center-x="-0.099732479"
       inkscape:transform-center-y="-1.9315046"
       transform="matrix(0.07517688,0,0,0.08760971,699.79093,531.17223)" />
    <path
       sodipodi:type="star"
       style="fill:#ffff00;fill-rule:evenodd;stroke:#000000;stroke-width:1px;stroke-linecap:butt;stroke-linejoin:miter;stroke-opacity:1"
       id="path3057-7-1-9-8-1-9-4-5"
       sodipodi:sides="5"
       sodipodi:cx="-1805.7144"
       sodipodi:cy="-204.78067"
       sodipodi:r1="244.1311"
       sodipodi:r2="122.06556"
       sodipodi:arg1="0.96007036"
       sodipodi:arg2="1.5883889"
       inkscape:flatsided="false"
       inkscape:rounded="0"
       inkscape:randomized="0"
       d="M -1665.7144,-4.7806777 -1807.8617,-82.734 l -144.8016,72.9046343 30.2121,-159.2790443 -114.0826,-115.18572 160.8194,-20.48654 74.2947,-144.09333 69.1798,146.61767 159.9992,26.13115 -118.0639,111.10124 z"
       inkscape:transform-center-x="-0.099763021"
       inkscape:transform-center-y="-1.9315032"
       transform="matrix(0.07517688,0,0,0.08760971,332.4115,529.98288)" />
    <path
       sodipodi:type="star"
       style="fill:#ffff00;fill-rule:evenodd;stroke:#000000;stroke-width:1px;stroke-linecap:butt;stroke-linejoin:miter;stroke-opacity:1"
       id="path3057-7-1-9-8-1-99-4"
       sodipodi:sides="5"
       sodipodi:cx="-1805.7144"
       sodipodi:cy="-204.78067"
       sodipodi:r1="244.1311"
       sodipodi:r2="122.06556"
       sodipodi:arg1="0.96007036"
       sodipodi:arg2="1.5883889"
       inkscape:flatsided="false"
       inkscape:rounded="0"
       inkscape:randomized="0"
       d="M -1665.7144,-4.7806777 -1807.8617,-82.734 l -144.8016,72.9046343 30.2121,-159.2790443 -114.0826,-115.18572 160.8194,-20.48654 74.2947,-144.09333 69.1798,146.61767 159.9992,26.13115 -118.0639,111.10124 z"
       inkscape:transform-center-x="-0.099772536"
       inkscape:transform-center-y="-1.9315076"
       transform="matrix(0.07517688,0,0,0.08760971,521.77069,328.983)" />
    <path
       sodipodi:type="star"
       style="fill:#ffff00;fill-rule:evenodd;stroke:#000000;stroke-width:1px;stroke-linecap:butt;stroke-linejoin:miter;stroke-opacity:1"
       id="path3057-7-1-9-8-1-0-8"
       sodipodi:sides="5"
       sodipodi:cx="-1805.7144"
       sodipodi:cy="-204.78067"
       sodipodi:r1="244.1311"
       sodipodi:r2="122.06556"
       sodipodi:arg1="0.96007036"
       sodipodi:arg2="1.5883889"
       inkscape:flatsided="false"
       inkscape:rounded="0"
       inkscape:randomized="0"
       d="M -1665.7144,-4.7806777 -1807.8617,-82.734 l -144.8016,72.9046343 30.2121,-159.2790443 -114.0826,-115.18572 160.8194,-20.48654 74.2947,-144.09333 69.1798,146.61767 159.9992,26.13115 -118.0639,111.10124 z"
       inkscape:transform-center-x="-0.099752113"
       inkscape:transform-center-y="-1.9315008"
       transform="matrix(0.07517688,0,0,0.08760971,520.63672,702.4384)" />
    <path
       sodipodi:type="star"
       style="fill:#ff0000"
       id="path3682"
       sodipodi:sides="10"
       sodipodi:cx="-1051.4286"
       sodipodi:cy="-179.06639"
       sodipodi:r1="169.60941"
       sodipodi:r2="84.804703"
       sodipodi:arg1="1.0014831"
       sodipodi:arg2="1.3156424"
       inkscape:flatsided="false"
       inkscape:rounded="1"
       inkscape:randomized="0"
       d="m -960.00001,-36.209243 c -78.10819,49.989238 19.70847,-84.203877 -70.02439,-60.798044 -89.7328,23.405837 61.16754,92.7238244 -31.4062,87.2551289 -92.5738,-5.4686959 65.43825,-56.5380249 -20.9147,-90.3459319 -86.353,-33.80791 -5.0162,110.968505 -76.6955,52.130734 -71.6794,-58.837774 86.1729,-7.276564 36.1836,-85.384744 -49.9892,-78.10818 -69.2838,86.826989 -92.6896,-2.90583 -23.4058,-89.73282 73.9924,44.764297 79.4611,-47.80949 5.4687,-92.57378 -107.0874,29.52052 -73.2795,-56.83246 33.8079,-86.35298 33.5493,79.70672 92.3871,8.02737 58.8378,-71.67935 -103.9873,-39.06179 -25.8791,-89.05103 78.1082,-49.98924 -19.7084,84.20388 70.0244,60.79804 89.7328,-23.40583 -61.1675,-92.72382 31.4063,-87.25512 92.57374,5.46869 -65.4383,56.53802 20.9147,90.34593 86.35294,33.80791 5.0161,-110.96851 76.69545,-52.13074 71.67934,58.83778 -86.17295,7.27657 -36.18366,85.38475 49.98924,78.10818 69.2838,-86.82699 92.68963,2.90583 23.40583,89.73282 -73.9924,-44.7643 -79.46109,47.80949 -5.46869,92.573778 107.08739,-29.52052 73.27948,56.83246 -33.80791,86.352979 -33.54931,-79.70672 -92.38708,-8.02737 -58.83773,71.679345 103.98724,39.061791 25.87906,89.051027 z"
       transform="matrix(0.23384861,0,0,0.25131401,512.09029,439.55821)" />
    <path
       transform="matrix(0.31016853,0,0,0.30095979,593.26293,447.68256)"
       sodipodi:type="star"
       style="fill:#ff0000"
       id="path3682-0"
       sodipodi:sides="10"
       sodipodi:cx="-1051.4286"
       sodipodi:cy="-179.06639"
       sodipodi:r1="169.60941"
       sodipodi:r2="84.804703"
       sodipodi:arg1="1.0014831"
       sodipodi:arg2="1.3156424"
       inkscape:flatsided="false"
       inkscape:rounded="1"
       inkscape:randomized="0"
       d="m -960.00001,-36.209243 c -78.10819,49.989238 19.70847,-84.203877 -70.02439,-60.798044 -89.7328,23.405837 61.16754,92.7238244 -31.4062,87.2551289 -92.5738,-5.4686959 65.43825,-56.5380249 -20.9147,-90.3459319 -86.353,-33.80791 -5.0162,110.968505 -76.6955,52.130734 -71.6794,-58.837774 86.1729,-7.276564 36.1836,-85.384744 -49.9892,-78.10818 -69.2838,86.826989 -92.6896,-2.90583 -23.4058,-89.73282 73.9924,44.764297 79.4611,-47.80949 5.4687,-92.57378 -107.0874,29.52052 -73.2795,-56.83246 33.8079,-86.35298 33.5493,79.70672 92.3871,8.02737 58.8378,-71.67935 -103.9873,-39.06179 -25.8791,-89.05103 78.1082,-49.98924 -19.7084,84.20388 70.0244,60.79804 89.7328,-23.40583 -61.1675,-92.72382 31.4063,-87.25512 92.57374,5.46869 -65.4383,56.53802 20.9147,90.34593 86.35294,33.80791 5.0161,-110.96851 76.69545,-52.13074 71.67934,58.83778 -86.17295,7.27657 -36.18366,85.38475 49.98924,78.10818 69.2838,-86.82699 92.68963,2.90583 23.40583,89.73282 -73.9924,-44.7643 -79.46109,47.80949 -5.46869,92.573778 107.08739,-29.52052 73.27948,56.83246 -33.80791,86.352979 -33.54931,-79.70672 -92.38708,-8.02737 -58.83773,71.679345 103.98724,39.061791 25.87906,89.051027 z" />
    <path
       sodipodi:type="star"
       style="fill:#ff0000"
       id="path3704"
       sodipodi:sides="10"
       sodipodi:cx="-1125.7144"
       sodipodi:cy="-213.3521"
       sodipodi:r1="11.428571"
       sodipodi:r2="5.7142854"
       sodipodi:arg1="1.5707963"
       sodipodi:arg2="1.8849556"
       inkscape:flatsided="false"
       inkscape:rounded="1"
       inkscape:randomized="0"
       d="m -1125.7144,-201.92353 c -6.2486,0 4.1771,-4.06302 -1.7658,-5.99396 -5.9428,-1.93094 0.1036,7.48417 -4.9517,3.8113 -5.0553,-3.67287 5.7675,-0.83187 2.0946,-5.88713 -3.6729,-5.05527 -4.3153,6.11567 -6.2463,0.17285 -1.9309,-5.94283 5.155,2.71703 5.155,-3.53163 0,-6.24865 -7.0859,2.4112 -5.155,-3.53162 1.931,-5.94282 2.5734,5.22812 6.2463,0.17285 3.6729,-5.05527 -7.1499,-2.21427 -2.0946,-5.88713 5.0553,-3.67287 -0.9911,5.74224 4.9517,3.8113 5.9429,-1.93095 -4.4828,-5.99397 1.7658,-5.99397 6.2487,0 -4.177,4.06303 1.7659,5.99397 5.9428,1.93094 -0.1036,-7.48417 4.9517,-3.8113 5.0553,3.67286 -5.7675,0.83186 -2.0946,5.88713 3.6729,5.05527 4.3153,-6.11567 6.2463,-0.17285 1.9309,5.94282 -5.155,-2.71703 -5.155,3.53162 0,6.24866 7.0859,-2.4112 5.155,3.53163 -1.931,5.94282 -2.5734,-5.22812 -6.2463,-0.17285 -3.6729,5.05526 7.1499,2.21426 2.0946,5.88713 -5.0553,3.67287 0.9911,-5.74224 -4.9517,-3.8113 -5.9429,1.93094 4.4828,5.99396 -1.7659,5.99396 z"
       transform="matrix(0.12987656,0,0,0.13396942,374.1982,389.838)" />
    <path
       sodipodi:type="star"
       style="fill:#ff0000"
       id="path3682-3"
       sodipodi:sides="10"
       sodipodi:cx="-1051.4286"
       sodipodi:cy="-179.06639"
       sodipodi:r1="169.60941"
       sodipodi:r2="84.804703"
       sodipodi:arg1="1.0014831"
       sodipodi:arg2="1.3156424"
       inkscape:flatsided="false"
       inkscape:rounded="1"
       inkscape:randomized="0"
       d="m -960.00001,-36.209243 c -78.10819,49.989238 19.70847,-84.203877 -70.02439,-60.798044 -89.7328,23.405837 61.16754,92.7238244 -31.4062,87.2551289 -92.5738,-5.4686959 65.43825,-56.5380249 -20.9147,-90.3459319 -86.353,-33.80791 -5.0162,110.968505 -76.6955,52.130734 -71.6794,-58.837774 86.1729,-7.276564 36.1836,-85.384744 -49.9892,-78.10818 -69.2838,86.826989 -92.6896,-2.90583 -23.4058,-89.73282 73.9924,44.764297 79.4611,-47.80949 5.4687,-92.57378 -107.0874,29.52052 -73.2795,-56.83246 33.8079,-86.35298 33.5493,79.70672 92.3871,8.02737 58.8378,-71.67935 -103.9873,-39.06179 -25.8791,-89.05103 78.1082,-49.98924 -19.7084,84.20388 70.0244,60.79804 89.7328,-23.40583 -61.1675,-92.72382 31.4063,-87.25512 92.57374,5.46869 -65.4383,56.53802 20.9147,90.34593 86.35294,33.80791 5.0161,-110.96851 76.69545,-52.13074 71.67934,58.83778 -86.17295,7.27657 -36.18366,85.38475 49.98924,78.10818 69.2838,-86.82699 92.68963,2.90583 23.40583,89.73282 -73.9924,-44.7643 -79.46109,47.80949 -5.46869,92.573778 107.08739,-29.52052 73.27948,56.83246 -33.80791,86.352979 -33.54931,-79.70672 -92.38708,-8.02737 -58.83773,71.679345 103.98724,39.061791 25.87906,89.051027 z"
       transform="matrix(0.23384861,0,0,0.25131401,736.37599,435.27248)" />
    <path
       transform="matrix(0.31016853,0,0,0.30095979,817.54863,443.39683)"
       sodipodi:type="star"
       style="fill:#ff0000"
       id="path3682-0-5"
       sodipodi:sides="10"
       sodipodi:cx="-1051.4286"
       sodipodi:cy="-179.06639"
       sodipodi:r1="169.60941"
       sodipodi:r2="84.804703"
       sodipodi:arg1="1.0014831"
       sodipodi:arg2="1.3156424"
       inkscape:flatsided="false"
       inkscape:rounded="1"
       inkscape:randomized="0"
       d="m -960.00001,-36.209243 c -78.10819,49.989238 19.70847,-84.203877 -70.02439,-60.798044 -89.7328,23.405837 61.16754,92.7238244 -31.4062,87.2551289 -92.5738,-5.4686959 65.43825,-56.5380249 -20.9147,-90.3459319 -86.353,-33.80791 -5.0162,110.968505 -76.6955,52.130734 -71.6794,-58.837774 86.1729,-7.276564 36.1836,-85.384744 -49.9892,-78.10818 -69.2838,86.826989 -92.6896,-2.90583 -23.4058,-89.73282 73.9924,44.764297 79.4611,-47.80949 5.4687,-92.57378 -107.0874,29.52052 -73.2795,-56.83246 33.8079,-86.35298 33.5493,79.70672 92.3871,8.02737 58.8378,-71.67935 -103.9873,-39.06179 -25.8791,-89.05103 78.1082,-49.98924 -19.7084,84.20388 70.0244,60.79804 89.7328,-23.40583 -61.1675,-92.72382 31.4063,-87.25512 92.57374,5.46869 -65.4383,56.53802 20.9147,90.34593 86.35294,33.80791 5.0161,-110.96851 76.69545,-52.13074 71.67934,58.83778 -86.17295,7.27657 -36.18366,85.38475 49.98924,78.10818 69.2838,-86.82699 92.68963,2.90583 23.40583,89.73282 -73.9924,-44.7643 -79.46109,47.80949 -5.46869,92.573778 107.08739,-29.52052 73.27948,56.83246 -33.80791,86.352979 -33.54931,-79.70672 -92.38708,-8.02737 -58.83773,71.679345 103.98724,39.061791 25.87906,89.051027 z" />
    <path
       sodipodi:type="star"
       style="fill:#ff0000"
       id="path3704-9"
       sodipodi:sides="10"
       sodipodi:cx="-1125.7144"
       sodipodi:cy="-213.3521"
       sodipodi:r1="11.428571"
       sodipodi:r2="5.7142854"
       sodipodi:arg1="1.5707963"
       sodipodi:arg2="1.8849556"
       inkscape:flatsided="false"
       inkscape:rounded="1"
       inkscape:randomized="0"
       d="m -1125.7144,-201.92353 c -6.2486,0 4.1771,-4.06302 -1.7658,-5.99396 -5.9428,-1.93094 0.1036,7.48417 -4.9517,3.8113 -5.0553,-3.67287 5.7675,-0.83187 2.0946,-5.88713 -3.6729,-5.05527 -4.3153,6.11567 -6.2463,0.17285 -1.9309,-5.94283 5.155,2.71703 5.155,-3.53163 0,-6.24865 -7.0859,2.4112 -5.155,-3.53162 1.931,-5.94282 2.5734,5.22812 6.2463,0.17285 3.6729,-5.05527 -7.1499,-2.21427 -2.0946,-5.88713 5.0553,-3.67287 -0.9911,5.74224 4.9517,3.8113 5.9429,-1.93095 -4.4828,-5.99397 1.7658,-5.99397 6.2487,0 -4.177,4.06303 1.7659,5.99397 5.9428,1.93094 -0.1036,-7.48417 4.9517,-3.8113 5.0553,3.67286 -5.7675,0.83186 -2.0946,5.88713 3.6729,5.05527 4.3153,-6.11567 6.2463,-0.17285 1.9309,5.94282 -5.155,-2.71703 -5.155,3.53162 0,6.24866 7.0859,-2.4112 5.155,3.53163 -1.931,5.94282 -2.5734,-5.22812 -6.2463,-0.17285 -3.6729,5.05526 7.1499,2.21426 2.0946,5.88713 -5.0553,3.67287 0.9911,-5.74224 -4.9517,-3.8113 -5.9429,1.93094 4.4828,5.99396 -1.7659,5.99396 z"
       transform="matrix(0.12987656,0,0,0.13396942,598.4839,385.55227)" />
    <path
       sodipodi:type="star"
       style="fill:#ff0000"
       id="path3682-6"
       sodipodi:sides="10"
       sodipodi:cx="-1051.4286"
       sodipodi:cy="-179.06639"
       sodipodi:r1="169.60941"
       sodipodi:r2="84.804703"
       sodipodi:arg1="1.0014831"
       sodipodi:arg2="1.3156424"
       inkscape:flatsided="false"
       inkscape:rounded="1"
       inkscape:randomized="0"
       d="m -960.00001,-36.209243 c -78.10819,49.989238 19.70847,-84.203877 -70.02439,-60.798044 -89.7328,23.405837 61.16754,92.7238244 -31.4062,87.2551289 -92.5738,-5.4686959 65.43825,-56.5380249 -20.9147,-90.3459319 -86.353,-33.80791 -5.0162,110.968505 -76.6955,52.130734 -71.6794,-58.837774 86.1729,-7.276564 36.1836,-85.384744 -49.9892,-78.10818 -69.2838,86.826989 -92.6896,-2.90583 -23.4058,-89.73282 73.9924,44.764297 79.4611,-47.80949 5.4687,-92.57378 -107.0874,29.52052 -73.2795,-56.83246 33.8079,-86.35298 33.5493,79.70672 92.3871,8.02737 58.8378,-71.67935 -103.9873,-39.06179 -25.8791,-89.05103 78.1082,-49.98924 -19.7084,84.20388 70.0244,60.79804 89.7328,-23.40583 -61.1675,-92.72382 31.4063,-87.25512 92.57374,5.46869 -65.4383,56.53802 20.9147,90.34593 86.35294,33.80791 5.0161,-110.96851 76.69545,-52.13074 71.67934,58.83778 -86.17295,7.27657 -36.18366,85.38475 49.98924,78.10818 69.2838,-86.82699 92.68963,2.90583 23.40583,89.73282 -73.9924,-44.7643 -79.46109,47.80949 -5.46869,92.573778 107.08739,-29.52052 73.27948,56.83246 -33.80791,86.352979 -33.54931,-79.70672 -92.38708,-8.02737 -58.83773,71.679345 103.98724,39.061791 25.87906,89.051027 z"
       transform="matrix(0.23384861,0,0,0.25131401,739.23314,669.5582)" />
    <path
       transform="matrix(0.31016853,0,0,0.30095979,820.40578,677.68255)"
       sodipodi:type="star"
       style="fill:#ff0000"
       id="path3682-0-1"
       sodipodi:sides="10"
       sodipodi:cx="-1051.4286"
       sodipodi:cy="-179.06639"
       sodipodi:r1="169.60941"
       sodipodi:r2="84.804703"
       sodipodi:arg1="1.0014831"
       sodipodi:arg2="1.3156424"
       inkscape:flatsided="false"
       inkscape:rounded="1"
       inkscape:randomized="0"
       d="m -960.00001,-36.209243 c -78.10819,49.989238 19.70847,-84.203877 -70.02439,-60.798044 -89.7328,23.405837 61.16754,92.7238244 -31.4062,87.2551289 -92.5738,-5.4686959 65.43825,-56.5380249 -20.9147,-90.3459319 -86.353,-33.80791 -5.0162,110.968505 -76.6955,52.130734 -71.6794,-58.837774 86.1729,-7.276564 36.1836,-85.384744 -49.9892,-78.10818 -69.2838,86.826989 -92.6896,-2.90583 -23.4058,-89.73282 73.9924,44.764297 79.4611,-47.80949 5.4687,-92.57378 -107.0874,29.52052 -73.2795,-56.83246 33.8079,-86.35298 33.5493,79.70672 92.3871,8.02737 58.8378,-71.67935 -103.9873,-39.06179 -25.8791,-89.05103 78.1082,-49.98924 -19.7084,84.20388 70.0244,60.79804 89.7328,-23.40583 -61.1675,-92.72382 31.4063,-87.25512 92.57374,5.46869 -65.4383,56.53802 20.9147,90.34593 86.35294,33.80791 5.0161,-110.96851 76.69545,-52.13074 71.67934,58.83778 -86.17295,7.27657 -36.18366,85.38475 49.98924,78.10818 69.2838,-86.82699 92.68963,2.90583 23.40583,89.73282 -73.9924,-44.7643 -79.46109,47.80949 -5.46869,92.573778 107.08739,-29.52052 73.27948,56.83246 -33.80791,86.352979 -33.54931,-79.70672 -92.38708,-8.02737 -58.83773,71.679345 103.98724,39.061791 25.87906,89.051027 z" />
    <path
       sodipodi:type="star"
       style="fill:#ff0000"
       id="path3704-5"
       sodipodi:sides="10"
       sodipodi:cx="-1125.7144"
       sodipodi:cy="-213.3521"
       sodipodi:r1="11.428571"
       sodipodi:r2="5.7142854"
       sodipodi:arg1="1.5707963"
       sodipodi:arg2="1.8849556"
       inkscape:flatsided="false"
       inkscape:rounded="1"
       inkscape:randomized="0"
       d="m -1125.7144,-201.92353 c -6.2486,0 4.1771,-4.06302 -1.7658,-5.99396 -5.9428,-1.93094 0.1036,7.48417 -4.9517,3.8113 -5.0553,-3.67287 5.7675,-0.83187 2.0946,-5.88713 -3.6729,-5.05527 -4.3153,6.11567 -6.2463,0.17285 -1.9309,-5.94283 5.155,2.71703 5.155,-3.53163 0,-6.24865 -7.0859,2.4112 -5.155,-3.53162 1.931,-5.94282 2.5734,5.22812 6.2463,0.17285 3.6729,-5.05527 -7.1499,-2.21427 -2.0946,-5.88713 5.0553,-3.67287 -0.9911,5.74224 4.9517,3.8113 5.9429,-1.93095 -4.4828,-5.99397 1.7658,-5.99397 6.2487,0 -4.177,4.06303 1.7659,5.99397 5.9428,1.93094 -0.1036,-7.48417 4.9517,-3.8113 5.0553,3.67286 -5.7675,0.83186 -2.0946,5.88713 3.6729,5.05527 4.3153,-6.11567 6.2463,-0.17285 1.9309,5.94282 -5.155,-2.71703 -5.155,3.53162 0,6.24866 7.0859,-2.4112 5.155,3.53163 -1.931,5.94282 -2.5734,-5.22812 -6.2463,-0.17285 -3.6729,5.05526 7.1499,2.21426 2.0946,5.88713 -5.0553,3.67287 0.9911,-5.74224 -4.9517,-3.8113 -5.9429,1.93094 4.4828,5.99396 -1.7659,5.99396 z"
       transform="matrix(0.12987656,0,0,0.13396942,601.34105,619.83799)" />
    <path
       sodipodi:type="star"
       style="fill:#ff0000"
       id="path3682-9"
       sodipodi:sides="10"
       sodipodi:cx="-1051.4286"
       sodipodi:cy="-179.06639"
       sodipodi:r1="169.60941"
       sodipodi:r2="84.804703"
       sodipodi:arg1="1.0014831"
       sodipodi:arg2="1.3156424"
       inkscape:flatsided="false"
       inkscape:rounded="1"
       inkscape:randomized="0"
       d="m -960.00001,-36.209243 c -78.10819,49.989238 19.70847,-84.203877 -70.02439,-60.798044 -89.7328,23.405837 61.16754,92.7238244 -31.4062,87.2551289 -92.5738,-5.4686959 65.43825,-56.5380249 -20.9147,-90.3459319 -86.353,-33.80791 -5.0162,110.968505 -76.6955,52.130734 -71.6794,-58.837774 86.1729,-7.276564 36.1836,-85.384744 -49.9892,-78.10818 -69.2838,86.826989 -92.6896,-2.90583 -23.4058,-89.73282 73.9924,44.764297 79.4611,-47.80949 5.4687,-92.57378 -107.0874,29.52052 -73.2795,-56.83246 33.8079,-86.35298 33.5493,79.70672 92.3871,8.02737 58.8378,-71.67935 -103.9873,-39.06179 -25.8791,-89.05103 78.1082,-49.98924 -19.7084,84.20388 70.0244,60.79804 89.7328,-23.40583 -61.1675,-92.72382 31.4063,-87.25512 92.57374,5.46869 -65.4383,56.53802 20.9147,90.34593 86.35294,33.80791 5.0161,-110.96851 76.69545,-52.13074 71.67934,58.83778 -86.17295,7.27657 -36.18366,85.38475 49.98924,78.10818 69.2838,-86.82699 92.68963,2.90583 23.40583,89.73282 -73.9924,-44.7643 -79.46109,47.80949 -5.46869,92.573778 107.08739,-29.52052 73.27948,56.83246 -33.80791,86.352979 -33.54931,-79.70672 -92.38708,-8.02737 -58.83773,71.679345 103.98724,39.061791 25.87906,89.051027 z"
       transform="matrix(0.23384861,0,0,0.25131401,513.51885,669.5582)" />
    <path
       transform="matrix(0.31016853,0,0,0.30095979,594.69149,677.68255)"
       sodipodi:type="star"
       style="fill:#ff0000"
       id="path3682-0-0"
       sodipodi:sides="10"
       sodipodi:cx="-1051.4286"
       sodipodi:cy="-179.06639"
       sodipodi:r1="169.60941"
       sodipodi:r2="84.804703"
       sodipodi:arg1="1.0014831"
       sodipodi:arg2="1.3156424"
       inkscape:flatsided="false"
       inkscape:rounded="1"
       inkscape:randomized="0"
       d="m -960.00001,-36.209243 c -78.10819,49.989238 19.70847,-84.203877 -70.02439,-60.798044 -89.7328,23.405837 61.16754,92.7238244 -31.4062,87.2551289 -92.5738,-5.4686959 65.43825,-56.5380249 -20.9147,-90.3459319 -86.353,-33.80791 -5.0162,110.968505 -76.6955,52.130734 -71.6794,-58.837774 86.1729,-7.276564 36.1836,-85.384744 -49.9892,-78.10818 -69.2838,86.826989 -92.6896,-2.90583 -23.4058,-89.73282 73.9924,44.764297 79.4611,-47.80949 5.4687,-92.57378 -107.0874,29.52052 -73.2795,-56.83246 33.8079,-86.35298 33.5493,79.70672 92.3871,8.02737 58.8378,-71.67935 -103.9873,-39.06179 -25.8791,-89.05103 78.1082,-49.98924 -19.7084,84.20388 70.0244,60.79804 89.7328,-23.40583 -61.1675,-92.72382 31.4063,-87.25512 92.57374,5.46869 -65.4383,56.53802 20.9147,90.34593 86.35294,33.80791 5.0161,-110.96851 76.69545,-52.13074 71.67934,58.83778 -86.17295,7.27657 -36.18366,85.38475 49.98924,78.10818 69.2838,-86.82699 92.68963,2.90583 23.40583,89.73282 -73.9924,-44.7643 -79.46109,47.80949 -5.46869,92.573778 107.08739,-29.52052 73.27948,56.83246 -33.80791,86.352979 -33.54931,-79.70672 -92.38708,-8.02737 -58.83773,71.679345 103.98724,39.061791 25.87906,89.051027 z" />
    <path
       sodipodi:type="star"
       style="fill:#ff0000"
       id="path3704-8"
       sodipodi:sides="10"
       sodipodi:cx="-1125.7144"
       sodipodi:cy="-213.3521"
       sodipodi:r1="11.428571"
       sodipodi:r2="5.7142854"
       sodipodi:arg1="1.5707963"
       sodipodi:arg2="1.8849556"
       inkscape:flatsided="false"
       inkscape:rounded="1"
       inkscape:randomized="0"
       d="m -1125.7144,-201.92353 c -6.2486,0 4.1771,-4.06302 -1.7658,-5.99396 -5.9428,-1.93094 0.1036,7.48417 -4.9517,3.8113 -5.0553,-3.67287 5.7675,-0.83187 2.0946,-5.88713 -3.6729,-5.05527 -4.3153,6.11567 -6.2463,0.17285 -1.9309,-5.94283 5.155,2.71703 5.155,-3.53163 0,-6.24865 -7.0859,2.4112 -5.155,-3.53162 1.931,-5.94282 2.5734,5.22812 6.2463,0.17285 3.6729,-5.05527 -7.1499,-2.21427 -2.0946,-5.88713 5.0553,-3.67287 -0.9911,5.74224 4.9517,3.8113 5.9429,-1.93095 -4.4828,-5.99397 1.7658,-5.99397 6.2487,0 -4.177,4.06303 1.7659,5.99397 5.9428,1.93094 -0.1036,-7.48417 4.9517,-3.8113 5.0553,3.67286 -5.7675,0.83186 -2.0946,5.88713 3.6729,5.05527 4.3153,-6.11567 6.2463,-0.17285 1.9309,5.94282 -5.155,-2.71703 -5.155,3.53162 0,6.24866 7.0859,-2.4112 5.155,3.53163 -1.931,5.94282 -2.5734,-5.22812 -6.2463,-0.17285 -3.6729,5.05526 7.1499,2.21426 2.0946,5.88713 -5.0553,3.67287 0.9911,-5.74224 -4.9517,-3.8113 -5.9429,1.93094 4.4828,5.99396 -1.7659,5.99396 z"
       transform="matrix(0.12987656,0,0,0.13396942,375.62676,619.83799)" />
    <path
       style="fill:#ffccaa"
       d="m -1929.0026,444.39477 0,-515.714282 375.7143,0 375.7143,0 0,515.714282 0,515.71429 -375.7143,0 -375.7143,0 0,-515.71429 z"
       id="path3762"
       inkscape:connector-curvature="0" />
  </g>
</svg>
