<?xml version="1.0" encoding="utf-8"?>
<!-- Generator: Adobe Illustrator 14.0.0, SVG Export Plug-In . SVG Version: 6.00 Build 43363)  -->
<!DOCTYPE svg PUBLIC "-//W3C//DTD SVG 1.1//EN" "http://www.w3.org/Graphics/SVG/1.1/DTD/svg11.dtd">
<svg version="1.1" id="Layer_1" xmlns="http://www.w3.org/2000/svg" xmlns:xlink="http://www.w3.org/1999/xlink" x="0px" y="0px"
	 width="400px" height="345px" viewBox="0 0 400 345" enable-background="new 0 0 356 345" xml:space="preserve">
<g
	id="g0"
	transform="matrix(0.151775,-0.151775,0.151775,0.151775,0,75)">
	<polygon fill="#6c815d" fill-opacity="0.25" points="325.539,67.624 307.894,270.393 121.275,318.264 116.846,84.447 "/>
	<polygon fill="#404d37" fill-opacity="0.25" points="121.275,318.264 42.332,228.883 32.46,52.145 116.846,84.447 "/>
	<polygon fill="#5f7152" fill-opacity="0.25" points="116.846,84.447 32.46,52.145 197.515,43.343 325.539,67.624 "/>
</g>
<g
	id="g1"
	transform="matrix(0.151775,-0.151775,0.151775,0.151775,0,100)">
	<polygon fill="#709E32" points="325.539,67.624 307.894,270.393 121.275,318.264 116.846,84.447 "/>
	<polygon fill="#466320" points="121.275,318.264 42.332,228.883 32.46,52.145 116.846,84.447 "/>
	<polygon fill="#567927" points="116.846,84.447 32.46,52.145 197.515,43.343 325.539,67.624 "/>
</g>
<g
	id="g2"
	transform="matrix(0.151775,-0.151775,0.151775,0.151775,0,125)">
	<polygon fill="#709E32" points="325.539,67.624 307.894,270.393 121.275,318.264 116.846,84.447 "/>
	<polygon fill="#466320" points="121.275,318.264 42.332,228.883 32.46,52.145 116.846,84.447 "/>
	<polygon fill="#567927" points="116.846,84.447 32.46,52.145 197.515,43.343 325.539,67.624 "/>
</g>
<g
	id="g3"
	transform="matrix(0.151775,-0.151775,0.151775,0.151775,0,150)">
	<polygon fill="#709E32" points="325.539,67.624 307.894,270.393 121.275,318.264 116.846,84.447 "/>
	<polygon fill="#466320" points="121.275,318.264 42.332,228.883 32.46,52.145 116.846,84.447 "/>
	<polygon fill="#567927" points="116.846,84.447 32.46,52.145 197.515,43.343 325.539,67.624 "/>
</g>
<g
	id="g4"
	transform="matrix(0.151775,-0.151775,0.151775,0.151775,0,175)">
	<polygon fill="#709E32" points="325.539,67.624 307.894,270.393 121.275,318.264 116.846,84.447 "/>
	<polygon fill="#466320" points="121.275,318.264 42.332,228.883 32.46,52.145 116.846,84.447 "/>
	<polygon fill="#567927" points="116.846,84.447 32.46,52.145 197.515,43.343 325.539,67.624 "/>
</g>
<g
	id="g5"
	transform="matrix(0.151775,-0.151775,0.151775,0.151775,0,200)">
	<polygon fill="#709E32" points="325.539,67.624 307.894,270.393 121.275,318.264 116.846,84.447 "/>
	<polygon fill="#466320" points="121.275,318.264 42.332,228.883 32.46,52.145 116.846,84.447 "/>
	<polygon fill="#567927" points="116.846,84.447 32.46,52.145 197.515,43.343 325.539,67.624 "/>
</g>
<g
	id="g6"
	transform="matrix(0.151775,-0.151775,0.151775,0.151775,0,225)">
	<polygon fill="#709E32" points="325.539,67.624 307.894,270.393 121.275,318.264 116.846,84.447 "/>
	<polygon fill="#466320" points="121.275,318.264 42.332,228.883 32.46,52.145 116.846,84.447 "/>
	<polygon fill="#567927" points="116.846,84.447 32.46,52.145 197.515,43.343 325.539,67.624 "/>
</g>
<g
	id="g7"
	transform="matrix(0.151775,-0.151775,0.151775,0.151775,0,250)">
	<polygon fill="#709E32" points="325.539,67.624 307.894,270.393 121.275,318.264 116.846,84.447 "/>
	<polygon fill="#466320" points="121.275,318.264 42.332,228.883 32.46,52.145 116.846,84.447 "/>
	<polygon fill="#567927" points="116.846,84.447 32.46,52.145 197.515,43.343 325.539,67.624 "/>
</g>
<g
	id="g8"
	transform="matrix(0.151775,-0.151775,0.151775,0.151775,0,275)">
	<polygon fill="#6c815d" fill-opacity="0.25" points="325.539,67.624 307.894,270.393 121.275,318.264 116.846,84.447 "/>
	<polygon fill="#404d37" fill-opacity="0.25" points="121.275,318.264 42.332,228.883 32.46,52.145 116.846,84.447 "/>
	<polygon fill="#5f7152" fill-opacity="0.25" points="116.846,84.447 32.46,52.145 197.515,43.343 325.539,67.624 "/>
</g>
<g
	id="g0"
	transform="matrix(0.151775,-0.151775,0.151775,0.151775,25,75)">
	<polygon fill="#709E32" points="325.539,67.624 307.894,270.393 121.275,318.264 116.846,84.447 "/>
	<polygon fill="#466320" points="121.275,318.264 42.332,228.883 32.46,52.145 116.846,84.447 "/>
	<polygon fill="#567927" points="116.846,84.447 32.46,52.145 197.515,43.343 325.539,67.624 "/>
</g>
<g
	id="g1"
	transform="matrix(0.151775,-0.151775,0.151775,0.151775,25,100)">
	<polygon fill="#6c815d" fill-opacity="0.25" points="325.539,67.624 307.894,270.393 121.275,318.264 116.846,84.447 "/>
	<polygon fill="#404d37" fill-opacity="0.25" points="121.275,318.264 42.332,228.883 32.46,52.145 116.846,84.447 "/>
	<polygon fill="#5f7152" fill-opacity="0.25" points="116.846,84.447 32.46,52.145 197.515,43.343 325.539,67.624 "/>
</g>
<g
	id="g2"
	transform="matrix(0.151775,-0.151775,0.151775,0.151775,25,125)">
	<polygon fill="#6c815d" fill-opacity="0.25" points="325.539,67.624 307.894,270.393 121.275,318.264 116.846,84.447 "/>
	<polygon fill="#404d37" fill-opacity="0.25" points="121.275,318.264 42.332,228.883 32.46,52.145 116.846,84.447 "/>
	<polygon fill="#5f7152" fill-opacity="0.25" points="116.846,84.447 32.46,52.145 197.515,43.343 325.539,67.624 "/>
</g>
<g
	id="g3"
	transform="matrix(0.151775,-0.151775,0.151775,0.151775,25,150)">
	<polygon fill="#6c815d" fill-opacity="0.25" points="325.539,67.624 307.894,270.393 121.275,318.264 116.846,84.447 "/>
	<polygon fill="#404d37" fill-opacity="0.25" points="121.275,318.264 42.332,228.883 32.46,52.145 116.846,84.447 "/>
	<polygon fill="#5f7152" fill-opacity="0.25" points="116.846,84.447 32.46,52.145 197.515,43.343 325.539,67.624 "/>
</g>
<g
	id="g4"
	transform="matrix(0.151775,-0.151775,0.151775,0.151775,25,175)">
	<polygon fill="#6c815d" fill-opacity="0.25" points="325.539,67.624 307.894,270.393 121.275,318.264 116.846,84.447 "/>
	<polygon fill="#404d37" fill-opacity="0.25" points="121.275,318.264 42.332,228.883 32.46,52.145 116.846,84.447 "/>
	<polygon fill="#5f7152" fill-opacity="0.25" points="116.846,84.447 32.46,52.145 197.515,43.343 325.539,67.624 "/>
</g>
<g
	id="g5"
	transform="matrix(0.151775,-0.151775,0.151775,0.151775,25,200)">
	<polygon fill="#6c815d" fill-opacity="0.25" points="325.539,67.624 307.894,270.393 121.275,318.264 116.846,84.447 "/>
	<polygon fill="#404d37" fill-opacity="0.25" points="121.275,318.264 42.332,228.883 32.46,52.145 116.846,84.447 "/>
	<polygon fill="#5f7152" fill-opacity="0.25" points="116.846,84.447 32.46,52.145 197.515,43.343 325.539,67.624 "/>
</g>
<g
	id="g6"
	transform="matrix(0.151775,-0.151775,0.151775,0.151775,25,225)">
	<polygon fill="#6c815d" fill-opacity="0.25" points="325.539,67.624 307.894,270.393 121.275,318.264 116.846,84.447 "/>
	<polygon fill="#404d37" fill-opacity="0.25" points="121.275,318.264 42.332,228.883 32.46,52.145 116.846,84.447 "/>
	<polygon fill="#5f7152" fill-opacity="0.25" points="116.846,84.447 32.46,52.145 197.515,43.343 325.539,67.624 "/>
</g>
<g
	id="g7"
	transform="matrix(0.151775,-0.151775,0.151775,0.151775,25,250)">
	<polygon fill="#709E32" points="325.539,67.624 307.894,270.393 121.275,318.264 116.846,84.447 "/>
	<polygon fill="#466320" points="121.275,318.264 42.332,228.883 32.46,52.145 116.846,84.447 "/>
	<polygon fill="#567927" points="116.846,84.447 32.46,52.145 197.515,43.343 325.539,67.624 "/>
</g>
<g
	id="g8"
	transform="matrix(0.151775,-0.151775,0.151775,0.151775,25,275)">
	<polygon fill="#709E32" points="325.539,67.624 307.894,270.393 121.275,318.264 116.846,84.447 "/>
	<polygon fill="#466320" points="121.275,318.264 42.332,228.883 32.46,52.145 116.846,84.447 "/>
	<polygon fill="#567927" points="116.846,84.447 32.46,52.145 197.515,43.343 325.539,67.624 "/>
</g>
<g
	id="g0"
	transform="matrix(0.151775,-0.151775,0.151775,0.151775,50,75)">
	<polygon fill="#709E32" points="325.539,67.624 307.894,270.393 121.275,318.264 116.846,84.447 "/>
	<polygon fill="#466320" points="121.275,318.264 42.332,228.883 32.46,52.145 116.846,84.447 "/>
	<polygon fill="#567927" points="116.846,84.447 32.46,52.145 197.515,43.343 325.539,67.624 "/>
</g>
<g
	id="g1"
	transform="matrix(0.151775,-0.151775,0.151775,0.151775,50,100)">
	<polygon fill="#6c815d" fill-opacity="0.25" points="325.539,67.624 307.894,270.393 121.275,318.264 116.846,84.447 "/>
	<polygon fill="#404d37" fill-opacity="0.25" points="121.275,318.264 42.332,228.883 32.46,52.145 116.846,84.447 "/>
	<polygon fill="#5f7152" fill-opacity="0.25" points="116.846,84.447 32.46,52.145 197.515,43.343 325.539,67.624 "/>
</g>
<g
	id="g2"
	transform="matrix(0.151775,-0.151775,0.151775,0.151775,50,125)">
	<polygon fill="#6c815d" fill-opacity="0.25" points="325.539,67.624 307.894,270.393 121.275,318.264 116.846,84.447 "/>
	<polygon fill="#404d37" fill-opacity="0.25" points="121.275,318.264 42.332,228.883 32.46,52.145 116.846,84.447 "/>
	<polygon fill="#5f7152" fill-opacity="0.25" points="116.846,84.447 32.46,52.145 197.515,43.343 325.539,67.624 "/>
</g>
<g
	id="g3"
	transform="matrix(0.151775,-0.151775,0.151775,0.151775,50,150)">
	<polygon fill="#6c815d" fill-opacity="0.25" points="325.539,67.624 307.894,270.393 121.275,318.264 116.846,84.447 "/>
	<polygon fill="#404d37" fill-opacity="0.25" points="121.275,318.264 42.332,228.883 32.46,52.145 116.846,84.447 "/>
	<polygon fill="#5f7152" fill-opacity="0.25" points="116.846,84.447 32.46,52.145 197.515,43.343 325.539,67.624 "/>
</g>
<g
	id="g4"
	transform="matrix(0.151775,-0.151775,0.151775,0.151775,50,175)">
	<polygon fill="#6c815d" fill-opacity="0.25" points="325.539,67.624 307.894,270.393 121.275,318.264 116.846,84.447 "/>
	<polygon fill="#404d37" fill-opacity="0.25" points="121.275,318.264 42.332,228.883 32.46,52.145 116.846,84.447 "/>
	<polygon fill="#5f7152" fill-opacity="0.25" points="116.846,84.447 32.46,52.145 197.515,43.343 325.539,67.624 "/>
</g>
<g
	id="g5"
	transform="matrix(0.151775,-0.151775,0.151775,0.151775,50,200)">
	<polygon fill="#6c815d" fill-opacity="0.25" points="325.539,67.624 307.894,270.393 121.275,318.264 116.846,84.447 "/>
	<polygon fill="#404d37" fill-opacity="0.25" points="121.275,318.264 42.332,228.883 32.46,52.145 116.846,84.447 "/>
	<polygon fill="#5f7152" fill-opacity="0.25" points="116.846,84.447 32.46,52.145 197.515,43.343 325.539,67.624 "/>
</g>
<g
	id="g6"
	transform="matrix(0.151775,-0.151775,0.151775,0.151775,50,225)">
	<polygon fill="#6c815d" fill-opacity="0.25" points="325.539,67.624 307.894,270.393 121.275,318.264 116.846,84.447 "/>
	<polygon fill="#404d37" fill-opacity="0.25" points="121.275,318.264 42.332,228.883 32.46,52.145 116.846,84.447 "/>
	<polygon fill="#5f7152" fill-opacity="0.25" points="116.846,84.447 32.46,52.145 197.515,43.343 325.539,67.624 "/>
</g>
<g
	id="g7"
	transform="matrix(0.151775,-0.151775,0.151775,0.151775,50,250)">
	<polygon fill="#6c815d" fill-opacity="0.25" points="325.539,67.624 307.894,270.393 121.275,318.264 116.846,84.447 "/>
	<polygon fill="#404d37" fill-opacity="0.25" points="121.275,318.264 42.332,228.883 32.46,52.145 116.846,84.447 "/>
	<polygon fill="#5f7152" fill-opacity="0.25" points="116.846,84.447 32.46,52.145 197.515,43.343 325.539,67.624 "/>
</g>
<g
	id="g8"
	transform="matrix(0.151775,-0.151775,0.151775,0.151775,50,275)">
	<polygon fill="#709E32" points="325.539,67.624 307.894,270.393 121.275,318.264 116.846,84.447 "/>
	<polygon fill="#466320" points="121.275,318.264 42.332,228.883 32.46,52.145 116.846,84.447 "/>
	<polygon fill="#567927" points="116.846,84.447 32.46,52.145 197.515,43.343 325.539,67.624 "/>
</g>
<g
	id="g0"
	transform="matrix(0.151775,-0.151775,0.151775,0.151775,75,75)">
	<polygon fill="#6c815d" fill-opacity="0.25" points="325.539,67.624 307.894,270.393 121.275,318.264 116.846,84.447 "/>
	<polygon fill="#404d37" fill-opacity="0.25" points="121.275,318.264 42.332,228.883 32.46,52.145 116.846,84.447 "/>
	<polygon fill="#5f7152" fill-opacity="0.25" points="116.846,84.447 32.46,52.145 197.515,43.343 325.539,67.624 "/>
</g>
<g
	id="g1"
	transform="matrix(0.151775,-0.151775,0.151775,0.151775,75,100)">
	<polygon fill="#6c815d" fill-opacity="0.25" points="325.539,67.624 307.894,270.393 121.275,318.264 116.846,84.447 "/>
	<polygon fill="#404d37" fill-opacity="0.25" points="121.275,318.264 42.332,228.883 32.46,52.145 116.846,84.447 "/>
	<polygon fill="#5f7152" fill-opacity="0.25" points="116.846,84.447 32.46,52.145 197.515,43.343 325.539,67.624 "/>
</g>
<g
	id="g2"
	transform="matrix(0.151775,-0.151775,0.151775,0.151775,75,125)">
	<polygon fill="#6c815d" fill-opacity="0.25" points="325.539,67.624 307.894,270.393 121.275,318.264 116.846,84.447 "/>
	<polygon fill="#404d37" fill-opacity="0.25" points="121.275,318.264 42.332,228.883 32.46,52.145 116.846,84.447 "/>
	<polygon fill="#5f7152" fill-opacity="0.25" points="116.846,84.447 32.46,52.145 197.515,43.343 325.539,67.624 "/>
</g>
<g
	id="g3"
	transform="matrix(0.151775,-0.151775,0.151775,0.151775,75,150)">
	<polygon fill="#6c815d" fill-opacity="0.25" points="325.539,67.624 307.894,270.393 121.275,318.264 116.846,84.447 "/>
	<polygon fill="#404d37" fill-opacity="0.25" points="121.275,318.264 42.332,228.883 32.46,52.145 116.846,84.447 "/>
	<polygon fill="#5f7152" fill-opacity="0.25" points="116.846,84.447 32.46,52.145 197.515,43.343 325.539,67.624 "/>
</g>
<g
	id="g4"
	transform="matrix(0.151775,-0.151775,0.151775,0.151775,75,175)">
	<polygon fill="#6c815d" fill-opacity="0.25" points="325.539,67.624 307.894,270.393 121.275,318.264 116.846,84.447 "/>
	<polygon fill="#404d37" fill-opacity="0.25" points="121.275,318.264 42.332,228.883 32.46,52.145 116.846,84.447 "/>
	<polygon fill="#5f7152" fill-opacity="0.25" points="116.846,84.447 32.46,52.145 197.515,43.343 325.539,67.624 "/>
</g>
<g
	id="g5"
	transform="matrix(0.151775,-0.151775,0.151775,0.151775,75,200)">
	<polygon fill="#6c815d" fill-opacity="0.25" points="325.539,67.624 307.894,270.393 121.275,318.264 116.846,84.447 "/>
	<polygon fill="#404d37" fill-opacity="0.25" points="121.275,318.264 42.332,228.883 32.46,52.145 116.846,84.447 "/>
	<polygon fill="#5f7152" fill-opacity="0.25" points="116.846,84.447 32.46,52.145 197.515,43.343 325.539,67.624 "/>
</g>
<g
	id="g6"
	transform="matrix(0.151775,-0.151775,0.151775,0.151775,75,225)">
	<polygon fill="#6c815d" fill-opacity="0.25" points="325.539,67.624 307.894,270.393 121.275,318.264 116.846,84.447 "/>
	<polygon fill="#404d37" fill-opacity="0.25" points="121.275,318.264 42.332,228.883 32.46,52.145 116.846,84.447 "/>
	<polygon fill="#5f7152" fill-opacity="0.25" points="116.846,84.447 32.46,52.145 197.515,43.343 325.539,67.624 "/>
</g>
<g
	id="g7"
	transform="matrix(0.151775,-0.151775,0.151775,0.151775,75,250)">
	<polygon fill="#6c815d" fill-opacity="0.25" points="325.539,67.624 307.894,270.393 121.275,318.264 116.846,84.447 "/>
	<polygon fill="#404d37" fill-opacity="0.25" points="121.275,318.264 42.332,228.883 32.46,52.145 116.846,84.447 "/>
	<polygon fill="#5f7152" fill-opacity="0.25" points="116.846,84.447 32.46,52.145 197.515,43.343 325.539,67.624 "/>
</g>
<g
	id="g8"
	transform="matrix(0.151775,-0.151775,0.151775,0.151775,75,275)">
	<polygon fill="#6c815d" fill-opacity="0.25" points="325.539,67.624 307.894,270.393 121.275,318.264 116.846,84.447 "/>
	<polygon fill="#404d37" fill-opacity="0.25" points="121.275,318.264 42.332,228.883 32.46,52.145 116.846,84.447 "/>
	<polygon fill="#5f7152" fill-opacity="0.25" points="116.846,84.447 32.46,52.145 197.515,43.343 325.539,67.624 "/>
</g>
<g
	id="g0"
	transform="matrix(0.151775,-0.151775,0.151775,0.151775,100,75)">
	<polygon fill="#709E32" points="325.539,67.624 307.894,270.393 121.275,318.264 116.846,84.447 "/>
	<polygon fill="#466320" points="121.275,318.264 42.332,228.883 32.46,52.145 116.846,84.447 "/>
	<polygon fill="#567927" points="116.846,84.447 32.46,52.145 197.515,43.343 325.539,67.624 "/>
</g>
<g
	id="g1"
	transform="matrix(0.151775,-0.151775,0.151775,0.151775,100,100)">
	<polygon fill="#709E32" points="325.539,67.624 307.894,270.393 121.275,318.264 116.846,84.447 "/>
	<polygon fill="#466320" points="121.275,318.264 42.332,228.883 32.46,52.145 116.846,84.447 "/>
	<polygon fill="#567927" points="116.846,84.447 32.46,52.145 197.515,43.343 325.539,67.624 "/>
</g>
<g
	id="g2"
	transform="matrix(0.151775,-0.151775,0.151775,0.151775,100,125)">
	<polygon fill="#709E32" points="325.539,67.624 307.894,270.393 121.275,318.264 116.846,84.447 "/>
	<polygon fill="#466320" points="121.275,318.264 42.332,228.883 32.46,52.145 116.846,84.447 "/>
	<polygon fill="#567927" points="116.846,84.447 32.46,52.145 197.515,43.343 325.539,67.624 "/>
</g>
<g
	id="g3"
	transform="matrix(0.151775,-0.151775,0.151775,0.151775,100,150)">
	<polygon fill="#709E32" points="325.539,67.624 307.894,270.393 121.275,318.264 116.846,84.447 "/>
	<polygon fill="#466320" points="121.275,318.264 42.332,228.883 32.46,52.145 116.846,84.447 "/>
	<polygon fill="#567927" points="116.846,84.447 32.46,52.145 197.515,43.343 325.539,67.624 "/>
</g>
<g
	id="g4"
	transform="matrix(0.151775,-0.151775,0.151775,0.151775,100,175)">
	<polygon fill="#709E32" points="325.539,67.624 307.894,270.393 121.275,318.264 116.846,84.447 "/>
	<polygon fill="#466320" points="121.275,318.264 42.332,228.883 32.46,52.145 116.846,84.447 "/>
	<polygon fill="#567927" points="116.846,84.447 32.46,52.145 197.515,43.343 325.539,67.624 "/>
</g>
<g
	id="g5"
	transform="matrix(0.151775,-0.151775,0.151775,0.151775,100,200)">
	<polygon fill="#709E32" points="325.539,67.624 307.894,270.393 121.275,318.264 116.846,84.447 "/>
	<polygon fill="#466320" points="121.275,318.264 42.332,228.883 32.46,52.145 116.846,84.447 "/>
	<polygon fill="#567927" points="116.846,84.447 32.46,52.145 197.515,43.343 325.539,67.624 "/>
</g>
<g
	id="g6"
	transform="matrix(0.151775,-0.151775,0.151775,0.151775,100,225)">
	<polygon fill="#709E32" points="325.539,67.624 307.894,270.393 121.275,318.264 116.846,84.447 "/>
	<polygon fill="#466320" points="121.275,318.264 42.332,228.883 32.46,52.145 116.846,84.447 "/>
	<polygon fill="#567927" points="116.846,84.447 32.46,52.145 197.515,43.343 325.539,67.624 "/>
</g>
<g
	id="g7"
	transform="matrix(0.151775,-0.151775,0.151775,0.151775,100,250)">
	<polygon fill="#709E32" points="325.539,67.624 307.894,270.393 121.275,318.264 116.846,84.447 "/>
	<polygon fill="#466320" points="121.275,318.264 42.332,228.883 32.46,52.145 116.846,84.447 "/>
	<polygon fill="#567927" points="116.846,84.447 32.46,52.145 197.515,43.343 325.539,67.624 "/>
</g>
<g
	id="g8"
	transform="matrix(0.151775,-0.151775,0.151775,0.151775,100,275)">
	<polygon fill="#709E32" points="325.539,67.624 307.894,270.393 121.275,318.264 116.846,84.447 "/>
	<polygon fill="#466320" points="121.275,318.264 42.332,228.883 32.46,52.145 116.846,84.447 "/>
	<polygon fill="#567927" points="116.846,84.447 32.46,52.145 197.515,43.343 325.539,67.624 "/>
</g>
<g
	id="g0"
	transform="matrix(0.151775,-0.151775,0.151775,0.151775,125,75)">
	<polygon fill="#709E32" points="325.539,67.624 307.894,270.393 121.275,318.264 116.846,84.447 "/>
	<polygon fill="#466320" points="121.275,318.264 42.332,228.883 32.46,52.145 116.846,84.447 "/>
	<polygon fill="#567927" points="116.846,84.447 32.46,52.145 197.515,43.343 325.539,67.624 "/>
</g>
<g
	id="g1"
	transform="matrix(0.151775,-0.151775,0.151775,0.151775,125,100)">
	<polygon fill="#709E32" points="325.539,67.624 307.894,270.393 121.275,318.264 116.846,84.447 "/>
	<polygon fill="#466320" points="121.275,318.264 42.332,228.883 32.46,52.145 116.846,84.447 "/>
	<polygon fill="#567927" points="116.846,84.447 32.46,52.145 197.515,43.343 325.539,67.624 "/>
</g>
<g
	id="g2"
	transform="matrix(0.151775,-0.151775,0.151775,0.151775,125,125)">
	<polygon fill="#6c815d" fill-opacity="0.25" points="325.539,67.624 307.894,270.393 121.275,318.264 116.846,84.447 "/>
	<polygon fill="#404d37" fill-opacity="0.25" points="121.275,318.264 42.332,228.883 32.46,52.145 116.846,84.447 "/>
	<polygon fill="#5f7152" fill-opacity="0.25" points="116.846,84.447 32.46,52.145 197.515,43.343 325.539,67.624 "/>
</g>
<g
	id="g3"
	transform="matrix(0.151775,-0.151775,0.151775,0.151775,125,150)">
	<polygon fill="#6c815d" fill-opacity="0.25" points="325.539,67.624 307.894,270.393 121.275,318.264 116.846,84.447 "/>
	<polygon fill="#404d37" fill-opacity="0.25" points="121.275,318.264 42.332,228.883 32.46,52.145 116.846,84.447 "/>
	<polygon fill="#5f7152" fill-opacity="0.25" points="116.846,84.447 32.46,52.145 197.515,43.343 325.539,67.624 "/>
</g>
<g
	id="g4"
	transform="matrix(0.151775,-0.151775,0.151775,0.151775,125,175)">
	<polygon fill="#6c815d" fill-opacity="0.25" points="325.539,67.624 307.894,270.393 121.275,318.264 116.846,84.447 "/>
	<polygon fill="#404d37" fill-opacity="0.25" points="121.275,318.264 42.332,228.883 32.46,52.145 116.846,84.447 "/>
	<polygon fill="#5f7152" fill-opacity="0.25" points="116.846,84.447 32.46,52.145 197.515,43.343 325.539,67.624 "/>
</g>
<g
	id="g5"
	transform="matrix(0.151775,-0.151775,0.151775,0.151775,125,200)">
	<polygon fill="#6c815d" fill-opacity="0.25" points="325.539,67.624 307.894,270.393 121.275,318.264 116.846,84.447 "/>
	<polygon fill="#404d37" fill-opacity="0.25" points="121.275,318.264 42.332,228.883 32.46,52.145 116.846,84.447 "/>
	<polygon fill="#5f7152" fill-opacity="0.25" points="116.846,84.447 32.46,52.145 197.515,43.343 325.539,67.624 "/>
</g>
<g
	id="g6"
	transform="matrix(0.151775,-0.151775,0.151775,0.151775,125,225)">
	<polygon fill="#6c815d" fill-opacity="0.25" points="325.539,67.624 307.894,270.393 121.275,318.264 116.846,84.447 "/>
	<polygon fill="#404d37" fill-opacity="0.25" points="121.275,318.264 42.332,228.883 32.46,52.145 116.846,84.447 "/>
	<polygon fill="#5f7152" fill-opacity="0.25" points="116.846,84.447 32.46,52.145 197.515,43.343 325.539,67.624 "/>
</g>
<g
	id="g7"
	transform="matrix(0.151775,-0.151775,0.151775,0.151775,125,250)">
	<polygon fill="#6c815d" fill-opacity="0.25" points="325.539,67.624 307.894,270.393 121.275,318.264 116.846,84.447 "/>
	<polygon fill="#404d37" fill-opacity="0.25" points="121.275,318.264 42.332,228.883 32.46,52.145 116.846,84.447 "/>
	<polygon fill="#5f7152" fill-opacity="0.25" points="116.846,84.447 32.46,52.145 197.515,43.343 325.539,67.624 "/>
</g>
<g
	id="g8"
	transform="matrix(0.151775,-0.151775,0.151775,0.151775,125,275)">
	<polygon fill="#6c815d" fill-opacity="0.25" points="325.539,67.624 307.894,270.393 121.275,318.264 116.846,84.447 "/>
	<polygon fill="#404d37" fill-opacity="0.25" points="121.275,318.264 42.332,228.883 32.46,52.145 116.846,84.447 "/>
	<polygon fill="#5f7152" fill-opacity="0.25" points="116.846,84.447 32.46,52.145 197.515,43.343 325.539,67.624 "/>
</g>
<g
	id="g0"
	transform="matrix(0.151775,-0.151775,0.151775,0.151775,150,75)">
	<polygon fill="#6c815d" fill-opacity="0.25" points="325.539,67.624 307.894,270.393 121.275,318.264 116.846,84.447 "/>
	<polygon fill="#404d37" fill-opacity="0.25" points="121.275,318.264 42.332,228.883 32.46,52.145 116.846,84.447 "/>
	<polygon fill="#5f7152" fill-opacity="0.25" points="116.846,84.447 32.46,52.145 197.515,43.343 325.539,67.624 "/>
</g>
<g
	id="g1"
	transform="matrix(0.151775,-0.151775,0.151775,0.151775,150,100)">
	<polygon fill="#709E32" points="325.539,67.624 307.894,270.393 121.275,318.264 116.846,84.447 "/>
	<polygon fill="#466320" points="121.275,318.264 42.332,228.883 32.46,52.145 116.846,84.447 "/>
	<polygon fill="#567927" points="116.846,84.447 32.46,52.145 197.515,43.343 325.539,67.624 "/>
</g>
<g
	id="g2"
	transform="matrix(0.151775,-0.151775,0.151775,0.151775,150,125)">
	<polygon fill="#709E32" points="325.539,67.624 307.894,270.393 121.275,318.264 116.846,84.447 "/>
	<polygon fill="#466320" points="121.275,318.264 42.332,228.883 32.46,52.145 116.846,84.447 "/>
	<polygon fill="#567927" points="116.846,84.447 32.46,52.145 197.515,43.343 325.539,67.624 "/>
</g>
<g
	id="g3"
	transform="matrix(0.151775,-0.151775,0.151775,0.151775,150,150)">
	<polygon fill="#6c815d" fill-opacity="0.25" points="325.539,67.624 307.894,270.393 121.275,318.264 116.846,84.447 "/>
	<polygon fill="#404d37" fill-opacity="0.25" points="121.275,318.264 42.332,228.883 32.46,52.145 116.846,84.447 "/>
	<polygon fill="#5f7152" fill-opacity="0.25" points="116.846,84.447 32.46,52.145 197.515,43.343 325.539,67.624 "/>
</g>
<g
	id="g4"
	transform="matrix(0.151775,-0.151775,0.151775,0.151775,150,175)">
	<polygon fill="#6c815d" fill-opacity="0.25" points="325.539,67.624 307.894,270.393 121.275,318.264 116.846,84.447 "/>
	<polygon fill="#404d37" fill-opacity="0.25" points="121.275,318.264 42.332,228.883 32.46,52.145 116.846,84.447 "/>
	<polygon fill="#5f7152" fill-opacity="0.25" points="116.846,84.447 32.46,52.145 197.515,43.343 325.539,67.624 "/>
</g>
<g
	id="g5"
	transform="matrix(0.151775,-0.151775,0.151775,0.151775,150,200)">
	<polygon fill="#6c815d" fill-opacity="0.25" points="325.539,67.624 307.894,270.393 121.275,318.264 116.846,84.447 "/>
	<polygon fill="#404d37" fill-opacity="0.25" points="121.275,318.264 42.332,228.883 32.46,52.145 116.846,84.447 "/>
	<polygon fill="#5f7152" fill-opacity="0.25" points="116.846,84.447 32.46,52.145 197.515,43.343 325.539,67.624 "/>
</g>
<g
	id="g6"
	transform="matrix(0.151775,-0.151775,0.151775,0.151775,150,225)">
	<polygon fill="#6c815d" fill-opacity="0.25" points="325.539,67.624 307.894,270.393 121.275,318.264 116.846,84.447 "/>
	<polygon fill="#404d37" fill-opacity="0.25" points="121.275,318.264 42.332,228.883 32.46,52.145 116.846,84.447 "/>
	<polygon fill="#5f7152" fill-opacity="0.25" points="116.846,84.447 32.46,52.145 197.515,43.343 325.539,67.624 "/>
</g>
<g
	id="g7"
	transform="matrix(0.151775,-0.151775,0.151775,0.151775,150,250)">
	<polygon fill="#6c815d" fill-opacity="0.25" points="325.539,67.624 307.894,270.393 121.275,318.264 116.846,84.447 "/>
	<polygon fill="#404d37" fill-opacity="0.25" points="121.275,318.264 42.332,228.883 32.46,52.145 116.846,84.447 "/>
	<polygon fill="#5f7152" fill-opacity="0.25" points="116.846,84.447 32.46,52.145 197.515,43.343 325.539,67.624 "/>
</g>
<g
	id="g8"
	transform="matrix(0.151775,-0.151775,0.151775,0.151775,150,275)">
	<polygon fill="#6c815d" fill-opacity="0.25" points="325.539,67.624 307.894,270.393 121.275,318.264 116.846,84.447 "/>
	<polygon fill="#404d37" fill-opacity="0.25" points="121.275,318.264 42.332,228.883 32.46,52.145 116.846,84.447 "/>
	<polygon fill="#5f7152" fill-opacity="0.25" points="116.846,84.447 32.46,52.145 197.515,43.343 325.539,67.624 "/>
</g>
<g
	id="g0"
	transform="matrix(0.151775,-0.151775,0.151775,0.151775,175,75)">
	<polygon fill="#709E32" points="325.539,67.624 307.894,270.393 121.275,318.264 116.846,84.447 "/>
	<polygon fill="#466320" points="121.275,318.264 42.332,228.883 32.46,52.145 116.846,84.447 "/>
	<polygon fill="#567927" points="116.846,84.447 32.46,52.145 197.515,43.343 325.539,67.624 "/>
</g>
<g
	id="g1"
	transform="matrix(0.151775,-0.151775,0.151775,0.151775,175,100)">
	<polygon fill="#709E32" points="325.539,67.624 307.894,270.393 121.275,318.264 116.846,84.447 "/>
	<polygon fill="#466320" points="121.275,318.264 42.332,228.883 32.46,52.145 116.846,84.447 "/>
	<polygon fill="#567927" points="116.846,84.447 32.46,52.145 197.515,43.343 325.539,67.624 "/>
</g>
<g
	id="g2"
	transform="matrix(0.151775,-0.151775,0.151775,0.151775,175,125)">
	<polygon fill="#6c815d" fill-opacity="0.25" points="325.539,67.624 307.894,270.393 121.275,318.264 116.846,84.447 "/>
	<polygon fill="#404d37" fill-opacity="0.25" points="121.275,318.264 42.332,228.883 32.46,52.145 116.846,84.447 "/>
	<polygon fill="#5f7152" fill-opacity="0.25" points="116.846,84.447 32.46,52.145 197.515,43.343 325.539,67.624 "/>
</g>
<g
	id="g3"
	transform="matrix(0.151775,-0.151775,0.151775,0.151775,175,150)">
	<polygon fill="#6c815d" fill-opacity="0.25" points="325.539,67.624 307.894,270.393 121.275,318.264 116.846,84.447 "/>
	<polygon fill="#404d37" fill-opacity="0.25" points="121.275,318.264 42.332,228.883 32.46,52.145 116.846,84.447 "/>
	<polygon fill="#5f7152" fill-opacity="0.25" points="116.846,84.447 32.46,52.145 197.515,43.343 325.539,67.624 "/>
</g>
<g
	id="g4"
	transform="matrix(0.151775,-0.151775,0.151775,0.151775,175,175)">
	<polygon fill="#6c815d" fill-opacity="0.25" points="325.539,67.624 307.894,270.393 121.275,318.264 116.846,84.447 "/>
	<polygon fill="#404d37" fill-opacity="0.25" points="121.275,318.264 42.332,228.883 32.46,52.145 116.846,84.447 "/>
	<polygon fill="#5f7152" fill-opacity="0.25" points="116.846,84.447 32.46,52.145 197.515,43.343 325.539,67.624 "/>
</g>
<g
	id="g5"
	transform="matrix(0.151775,-0.151775,0.151775,0.151775,175,200)">
	<polygon fill="#6c815d" fill-opacity="0.25" points="325.539,67.624 307.894,270.393 121.275,318.264 116.846,84.447 "/>
	<polygon fill="#404d37" fill-opacity="0.25" points="121.275,318.264 42.332,228.883 32.46,52.145 116.846,84.447 "/>
	<polygon fill="#5f7152" fill-opacity="0.25" points="116.846,84.447 32.46,52.145 197.515,43.343 325.539,67.624 "/>
</g>
<g
	id="g6"
	transform="matrix(0.151775,-0.151775,0.151775,0.151775,175,225)">
	<polygon fill="#6c815d" fill-opacity="0.25" points="325.539,67.624 307.894,270.393 121.275,318.264 116.846,84.447 "/>
	<polygon fill="#404d37" fill-opacity="0.25" points="121.275,318.264 42.332,228.883 32.46,52.145 116.846,84.447 "/>
	<polygon fill="#5f7152" fill-opacity="0.25" points="116.846,84.447 32.46,52.145 197.515,43.343 325.539,67.624 "/>
</g>
<g
	id="g7"
	transform="matrix(0.151775,-0.151775,0.151775,0.151775,175,250)">
	<polygon fill="#6c815d" fill-opacity="0.25" points="325.539,67.624 307.894,270.393 121.275,318.264 116.846,84.447 "/>
	<polygon fill="#404d37" fill-opacity="0.25" points="121.275,318.264 42.332,228.883 32.46,52.145 116.846,84.447 "/>
	<polygon fill="#5f7152" fill-opacity="0.25" points="116.846,84.447 32.46,52.145 197.515,43.343 325.539,67.624 "/>
</g>
<g
	id="g8"
	transform="matrix(0.151775,-0.151775,0.151775,0.151775,175,275)">
	<polygon fill="#6c815d" fill-opacity="0.25" points="325.539,67.624 307.894,270.393 121.275,318.264 116.846,84.447 "/>
	<polygon fill="#404d37" fill-opacity="0.25" points="121.275,318.264 42.332,228.883 32.46,52.145 116.846,84.447 "/>
	<polygon fill="#5f7152" fill-opacity="0.25" points="116.846,84.447 32.46,52.145 197.515,43.343 325.539,67.624 "/>
</g>
<g
	id="g0"
	transform="matrix(0.151775,-0.151775,0.151775,0.151775,200,75)">
	<polygon fill="#709E32" points="325.539,67.624 307.894,270.393 121.275,318.264 116.846,84.447 "/>
	<polygon fill="#466320" points="121.275,318.264 42.332,228.883 32.46,52.145 116.846,84.447 "/>
	<polygon fill="#567927" points="116.846,84.447 32.46,52.145 197.515,43.343 325.539,67.624 "/>
</g>
<g
	id="g1"
	transform="matrix(0.151775,-0.151775,0.151775,0.151775,200,100)">
	<polygon fill="#709E32" points="325.539,67.624 307.894,270.393 121.275,318.264 116.846,84.447 "/>
	<polygon fill="#466320" points="121.275,318.264 42.332,228.883 32.46,52.145 116.846,84.447 "/>
	<polygon fill="#567927" points="116.846,84.447 32.46,52.145 197.515,43.343 325.539,67.624 "/>
</g>
<g
	id="g2"
	transform="matrix(0.151775,-0.151775,0.151775,0.151775,200,125)">
	<polygon fill="#709E32" points="325.539,67.624 307.894,270.393 121.275,318.264 116.846,84.447 "/>
	<polygon fill="#466320" points="121.275,318.264 42.332,228.883 32.46,52.145 116.846,84.447 "/>
	<polygon fill="#567927" points="116.846,84.447 32.46,52.145 197.515,43.343 325.539,67.624 "/>
</g>
<g
	id="g3"
	transform="matrix(0.151775,-0.151775,0.151775,0.151775,200,150)">
	<polygon fill="#709E32" points="325.539,67.624 307.894,270.393 121.275,318.264 116.846,84.447 "/>
	<polygon fill="#466320" points="121.275,318.264 42.332,228.883 32.46,52.145 116.846,84.447 "/>
	<polygon fill="#567927" points="116.846,84.447 32.46,52.145 197.515,43.343 325.539,67.624 "/>
</g>
<g
	id="g4"
	transform="matrix(0.151775,-0.151775,0.151775,0.151775,200,175)">
	<polygon fill="#709E32" points="325.539,67.624 307.894,270.393 121.275,318.264 116.846,84.447 "/>
	<polygon fill="#466320" points="121.275,318.264 42.332,228.883 32.46,52.145 116.846,84.447 "/>
	<polygon fill="#567927" points="116.846,84.447 32.46,52.145 197.515,43.343 325.539,67.624 "/>
</g>
<g
	id="g5"
	transform="matrix(0.151775,-0.151775,0.151775,0.151775,200,200)">
	<polygon fill="#709E32" points="325.539,67.624 307.894,270.393 121.275,318.264 116.846,84.447 "/>
	<polygon fill="#466320" points="121.275,318.264 42.332,228.883 32.46,52.145 116.846,84.447 "/>
	<polygon fill="#567927" points="116.846,84.447 32.46,52.145 197.515,43.343 325.539,67.624 "/>
</g>
<g
	id="g6"
	transform="matrix(0.151775,-0.151775,0.151775,0.151775,200,225)">
	<polygon fill="#709E32" points="325.539,67.624 307.894,270.393 121.275,318.264 116.846,84.447 "/>
	<polygon fill="#466320" points="121.275,318.264 42.332,228.883 32.46,52.145 116.846,84.447 "/>
	<polygon fill="#567927" points="116.846,84.447 32.46,52.145 197.515,43.343 325.539,67.624 "/>
</g>
<g
	id="g7"
	transform="matrix(0.151775,-0.151775,0.151775,0.151775,200,250)">
	<polygon fill="#709E32" points="325.539,67.624 307.894,270.393 121.275,318.264 116.846,84.447 "/>
	<polygon fill="#466320" points="121.275,318.264 42.332,228.883 32.46,52.145 116.846,84.447 "/>
	<polygon fill="#567927" points="116.846,84.447 32.46,52.145 197.515,43.343 325.539,67.624 "/>
</g>
<g
	id="g8"
	transform="matrix(0.151775,-0.151775,0.151775,0.151775,200,275)">
	<polygon fill="#709E32" points="325.539,67.624 307.894,270.393 121.275,318.264 116.846,84.447 "/>
	<polygon fill="#466320" points="121.275,318.264 42.332,228.883 32.46,52.145 116.846,84.447 "/>
	<polygon fill="#567927" points="116.846,84.447 32.46,52.145 197.515,43.343 325.539,67.624 "/>
</g>
<g
	id="g0"
	transform="matrix(0.151775,-0.151775,0.151775,0.151775,225,75)">
	<polygon fill="#6c815d" fill-opacity="0.25" points="325.539,67.624 307.894,270.393 121.275,318.264 116.846,84.447 "/>
	<polygon fill="#404d37" fill-opacity="0.25" points="121.275,318.264 42.332,228.883 32.46,52.145 116.846,84.447 "/>
	<polygon fill="#5f7152" fill-opacity="0.25" points="116.846,84.447 32.46,52.145 197.515,43.343 325.539,67.624 "/>
</g>
<g
	id="g1"
	transform="matrix(0.151775,-0.151775,0.151775,0.151775,225,100)">
	<polygon fill="#6c815d" fill-opacity="0.25" points="325.539,67.624 307.894,270.393 121.275,318.264 116.846,84.447 "/>
	<polygon fill="#404d37" fill-opacity="0.25" points="121.275,318.264 42.332,228.883 32.46,52.145 116.846,84.447 "/>
	<polygon fill="#5f7152" fill-opacity="0.25" points="116.846,84.447 32.46,52.145 197.515,43.343 325.539,67.624 "/>
</g>
<g
	id="g2"
	transform="matrix(0.151775,-0.151775,0.151775,0.151775,225,125)">
	<polygon fill="#6c815d" fill-opacity="0.25" points="325.539,67.624 307.894,270.393 121.275,318.264 116.846,84.447 "/>
	<polygon fill="#404d37" fill-opacity="0.25" points="121.275,318.264 42.332,228.883 32.46,52.145 116.846,84.447 "/>
	<polygon fill="#5f7152" fill-opacity="0.25" points="116.846,84.447 32.46,52.145 197.515,43.343 325.539,67.624 "/>
</g>
<g
	id="g3"
	transform="matrix(0.151775,-0.151775,0.151775,0.151775,225,150)">
	<polygon fill="#6c815d" fill-opacity="0.25" points="325.539,67.624 307.894,270.393 121.275,318.264 116.846,84.447 "/>
	<polygon fill="#404d37" fill-opacity="0.25" points="121.275,318.264 42.332,228.883 32.46,52.145 116.846,84.447 "/>
	<polygon fill="#5f7152" fill-opacity="0.25" points="116.846,84.447 32.46,52.145 197.515,43.343 325.539,67.624 "/>
</g>
<g
	id="g4"
	transform="matrix(0.151775,-0.151775,0.151775,0.151775,225,175)">
	<polygon fill="#6c815d" fill-opacity="0.25" points="325.539,67.624 307.894,270.393 121.275,318.264 116.846,84.447 "/>
	<polygon fill="#404d37" fill-opacity="0.25" points="121.275,318.264 42.332,228.883 32.46,52.145 116.846,84.447 "/>
	<polygon fill="#5f7152" fill-opacity="0.25" points="116.846,84.447 32.46,52.145 197.515,43.343 325.539,67.624 "/>
</g>
<g
	id="g5"
	transform="matrix(0.151775,-0.151775,0.151775,0.151775,225,200)">
	<polygon fill="#6c815d" fill-opacity="0.25" points="325.539,67.624 307.894,270.393 121.275,318.264 116.846,84.447 "/>
	<polygon fill="#404d37" fill-opacity="0.25" points="121.275,318.264 42.332,228.883 32.46,52.145 116.846,84.447 "/>
	<polygon fill="#5f7152" fill-opacity="0.25" points="116.846,84.447 32.46,52.145 197.515,43.343 325.539,67.624 "/>
</g>
<g
	id="g6"
	transform="matrix(0.151775,-0.151775,0.151775,0.151775,225,225)">
	<polygon fill="#6c815d" fill-opacity="0.25" points="325.539,67.624 307.894,270.393 121.275,318.264 116.846,84.447 "/>
	<polygon fill="#404d37" fill-opacity="0.25" points="121.275,318.264 42.332,228.883 32.46,52.145 116.846,84.447 "/>
	<polygon fill="#5f7152" fill-opacity="0.25" points="116.846,84.447 32.46,52.145 197.515,43.343 325.539,67.624 "/>
</g>
<g
	id="g7"
	transform="matrix(0.151775,-0.151775,0.151775,0.151775,225,250)">
	<polygon fill="#6c815d" fill-opacity="0.25" points="325.539,67.624 307.894,270.393 121.275,318.264 116.846,84.447 "/>
	<polygon fill="#404d37" fill-opacity="0.25" points="121.275,318.264 42.332,228.883 32.46,52.145 116.846,84.447 "/>
	<polygon fill="#5f7152" fill-opacity="0.25" points="116.846,84.447 32.46,52.145 197.515,43.343 325.539,67.624 "/>
</g>
<g
	id="g8"
	transform="matrix(0.151775,-0.151775,0.151775,0.151775,225,275)">
	<polygon fill="#6c815d" fill-opacity="0.25" points="325.539,67.624 307.894,270.393 121.275,318.264 116.846,84.447 "/>
	<polygon fill="#404d37" fill-opacity="0.25" points="121.275,318.264 42.332,228.883 32.46,52.145 116.846,84.447 "/>
	<polygon fill="#5f7152" fill-opacity="0.25" points="116.846,84.447 32.46,52.145 197.515,43.343 325.539,67.624 "/>
</g>
<g
	id="g0"
	transform="matrix(0.151775,-0.151775,0.151775,0.151775,250,75)">
	<polygon fill="#709E32" points="325.539,67.624 307.894,270.393 121.275,318.264 116.846,84.447 "/>
	<polygon fill="#466320" points="121.275,318.264 42.332,228.883 32.46,52.145 116.846,84.447 "/>
	<polygon fill="#567927" points="116.846,84.447 32.46,52.145 197.515,43.343 325.539,67.624 "/>
</g>
<g
	id="g1"
	transform="matrix(0.151775,-0.151775,0.151775,0.151775,250,100)">
	<polygon fill="#709E32" points="325.539,67.624 307.894,270.393 121.275,318.264 116.846,84.447 "/>
	<polygon fill="#466320" points="121.275,318.264 42.332,228.883 32.46,52.145 116.846,84.447 "/>
	<polygon fill="#567927" points="116.846,84.447 32.46,52.145 197.515,43.343 325.539,67.624 "/>
</g>
<g
	id="g2"
	transform="matrix(0.151775,-0.151775,0.151775,0.151775,250,125)">
	<polygon fill="#709E32" points="325.539,67.624 307.894,270.393 121.275,318.264 116.846,84.447 "/>
	<polygon fill="#466320" points="121.275,318.264 42.332,228.883 32.46,52.145 116.846,84.447 "/>
	<polygon fill="#567927" points="116.846,84.447 32.46,52.145 197.515,43.343 325.539,67.624 "/>
</g>
<g
	id="g3"
	transform="matrix(0.151775,-0.151775,0.151775,0.151775,250,150)">
	<polygon fill="#709E32" points="325.539,67.624 307.894,270.393 121.275,318.264 116.846,84.447 "/>
	<polygon fill="#466320" points="121.275,318.264 42.332,228.883 32.46,52.145 116.846,84.447 "/>
	<polygon fill="#567927" points="116.846,84.447 32.46,52.145 197.515,43.343 325.539,67.624 "/>
</g>
<g
	id="g4"
	transform="matrix(0.151775,-0.151775,0.151775,0.151775,250,175)">
	<polygon fill="#709E32" points="325.539,67.624 307.894,270.393 121.275,318.264 116.846,84.447 "/>
	<polygon fill="#466320" points="121.275,318.264 42.332,228.883 32.46,52.145 116.846,84.447 "/>
	<polygon fill="#567927" points="116.846,84.447 32.46,52.145 197.515,43.343 325.539,67.624 "/>
</g>
<g
	id="g5"
	transform="matrix(0.151775,-0.151775,0.151775,0.151775,250,200)">
	<polygon fill="#709E32" points="325.539,67.624 307.894,270.393 121.275,318.264 116.846,84.447 "/>
	<polygon fill="#466320" points="121.275,318.264 42.332,228.883 32.46,52.145 116.846,84.447 "/>
	<polygon fill="#567927" points="116.846,84.447 32.46,52.145 197.515,43.343 325.539,67.624 "/>
</g>
<g
	id="g6"
	transform="matrix(0.151775,-0.151775,0.151775,0.151775,250,225)">
	<polygon fill="#709E32" points="325.539,67.624 307.894,270.393 121.275,318.264 116.846,84.447 "/>
	<polygon fill="#466320" points="121.275,318.264 42.332,228.883 32.46,52.145 116.846,84.447 "/>
	<polygon fill="#567927" points="116.846,84.447 32.46,52.145 197.515,43.343 325.539,67.624 "/>
</g>
<g
	id="g7"
	transform="matrix(0.151775,-0.151775,0.151775,0.151775,250,250)">
	<polygon fill="#709E32" points="325.539,67.624 307.894,270.393 121.275,318.264 116.846,84.447 "/>
	<polygon fill="#466320" points="121.275,318.264 42.332,228.883 32.46,52.145 116.846,84.447 "/>
	<polygon fill="#567927" points="116.846,84.447 32.46,52.145 197.515,43.343 325.539,67.624 "/>
</g>
<g
	id="g8"
	transform="matrix(0.151775,-0.151775,0.151775,0.151775,250,275)">
	<polygon fill="#709E32" points="325.539,67.624 307.894,270.393 121.275,318.264 116.846,84.447 "/>
	<polygon fill="#466320" points="121.275,318.264 42.332,228.883 32.46,52.145 116.846,84.447 "/>
	<polygon fill="#567927" points="116.846,84.447 32.46,52.145 197.515,43.343 325.539,67.624 "/>
</g>
<g
	id="g0"
	transform="matrix(0.151775,-0.151775,0.151775,0.151775,275,75)">
	<polygon fill="#6c815d" fill-opacity="0.25" points="325.539,67.624 307.894,270.393 121.275,318.264 116.846,84.447 "/>
	<polygon fill="#404d37" fill-opacity="0.25" points="121.275,318.264 42.332,228.883 32.46,52.145 116.846,84.447 "/>
	<polygon fill="#5f7152" fill-opacity="0.25" points="116.846,84.447 32.46,52.145 197.515,43.343 325.539,67.624 "/>
</g>
<g
	id="g1"
	transform="matrix(0.151775,-0.151775,0.151775,0.151775,275,100)">
	<polygon fill="#6c815d" fill-opacity="0.25" points="325.539,67.624 307.894,270.393 121.275,318.264 116.846,84.447 "/>
	<polygon fill="#404d37" fill-opacity="0.25" points="121.275,318.264 42.332,228.883 32.46,52.145 116.846,84.447 "/>
	<polygon fill="#5f7152" fill-opacity="0.25" points="116.846,84.447 32.46,52.145 197.515,43.343 325.539,67.624 "/>
</g>
<g
	id="g2"
	transform="matrix(0.151775,-0.151775,0.151775,0.151775,275,125)">
	<polygon fill="#6c815d" fill-opacity="0.25" points="325.539,67.624 307.894,270.393 121.275,318.264 116.846,84.447 "/>
	<polygon fill="#404d37" fill-opacity="0.25" points="121.275,318.264 42.332,228.883 32.46,52.145 116.846,84.447 "/>
	<polygon fill="#5f7152" fill-opacity="0.25" points="116.846,84.447 32.46,52.145 197.515,43.343 325.539,67.624 "/>
</g>
<g
	id="g3"
	transform="matrix(0.151775,-0.151775,0.151775,0.151775,275,150)">
	<polygon fill="#6c815d" fill-opacity="0.25" points="325.539,67.624 307.894,270.393 121.275,318.264 116.846,84.447 "/>
	<polygon fill="#404d37" fill-opacity="0.25" points="121.275,318.264 42.332,228.883 32.46,52.145 116.846,84.447 "/>
	<polygon fill="#5f7152" fill-opacity="0.25" points="116.846,84.447 32.46,52.145 197.515,43.343 325.539,67.624 "/>
</g>
<g
	id="g4"
	transform="matrix(0.151775,-0.151775,0.151775,0.151775,275,175)">
	<polygon fill="#6c815d" fill-opacity="0.25" points="325.539,67.624 307.894,270.393 121.275,318.264 116.846,84.447 "/>
	<polygon fill="#404d37" fill-opacity="0.25" points="121.275,318.264 42.332,228.883 32.46,52.145 116.846,84.447 "/>
	<polygon fill="#5f7152" fill-opacity="0.25" points="116.846,84.447 32.46,52.145 197.515,43.343 325.539,67.624 "/>
</g>
<g
	id="g5"
	transform="matrix(0.151775,-0.151775,0.151775,0.151775,275,200)">
	<polygon fill="#6c815d" fill-opacity="0.25" points="325.539,67.624 307.894,270.393 121.275,318.264 116.846,84.447 "/>
	<polygon fill="#404d37" fill-opacity="0.25" points="121.275,318.264 42.332,228.883 32.46,52.145 116.846,84.447 "/>
	<polygon fill="#5f7152" fill-opacity="0.25" points="116.846,84.447 32.46,52.145 197.515,43.343 325.539,67.624 "/>
</g>
<g
	id="g6"
	transform="matrix(0.151775,-0.151775,0.151775,0.151775,275,225)">
	<polygon fill="#6c815d" fill-opacity="0.25" points="325.539,67.624 307.894,270.393 121.275,318.264 116.846,84.447 "/>
	<polygon fill="#404d37" fill-opacity="0.25" points="121.275,318.264 42.332,228.883 32.46,52.145 116.846,84.447 "/>
	<polygon fill="#5f7152" fill-opacity="0.25" points="116.846,84.447 32.46,52.145 197.515,43.343 325.539,67.624 "/>
</g>
<g
	id="g7"
	transform="matrix(0.151775,-0.151775,0.151775,0.151775,275,250)">
	<polygon fill="#6c815d" fill-opacity="0.25" points="325.539,67.624 307.894,270.393 121.275,318.264 116.846,84.447 "/>
	<polygon fill="#404d37" fill-opacity="0.25" points="121.275,318.264 42.332,228.883 32.46,52.145 116.846,84.447 "/>
	<polygon fill="#5f7152" fill-opacity="0.25" points="116.846,84.447 32.46,52.145 197.515,43.343 325.539,67.624 "/>
</g>
<g
	id="g8"
	transform="matrix(0.151775,-0.151775,0.151775,0.151775,275,275)">
	<polygon fill="#709E32" points="325.539,67.624 307.894,270.393 121.275,318.264 116.846,84.447 "/>
	<polygon fill="#466320" points="121.275,318.264 42.332,228.883 32.46,52.145 116.846,84.447 "/>
	<polygon fill="#567927" points="116.846,84.447 32.46,52.145 197.515,43.343 325.539,67.624 "/>
</g>
<g
	id="g0"
	transform="matrix(0.151775,-0.151775,0.151775,0.151775,300,75)">
	<polygon fill="#709E32" points="325.539,67.624 307.894,270.393 121.275,318.264 116.846,84.447 "/>
	<polygon fill="#466320" points="121.275,318.264 42.332,228.883 32.46,52.145 116.846,84.447 "/>
	<polygon fill="#567927" points="116.846,84.447 32.46,52.145 197.515,43.343 325.539,67.624 "/>
</g>
<g
	id="g1"
	transform="matrix(0.151775,-0.151775,0.151775,0.151775,300,100)">
	<polygon fill="#709E32" points="325.539,67.624 307.894,270.393 121.275,318.264 116.846,84.447 "/>
	<polygon fill="#466320" points="121.275,318.264 42.332,228.883 32.46,52.145 116.846,84.447 "/>
	<polygon fill="#567927" points="116.846,84.447 32.46,52.145 197.515,43.343 325.539,67.624 "/>
</g>
<g
	id="g2"
	transform="matrix(0.151775,-0.151775,0.151775,0.151775,300,125)">
	<polygon fill="#709E32" points="325.539,67.624 307.894,270.393 121.275,318.264 116.846,84.447 "/>
	<polygon fill="#466320" points="121.275,318.264 42.332,228.883 32.46,52.145 116.846,84.447 "/>
	<polygon fill="#567927" points="116.846,84.447 32.46,52.145 197.515,43.343 325.539,67.624 "/>
</g>
<g
	id="g3"
	transform="matrix(0.151775,-0.151775,0.151775,0.151775,300,150)">
	<polygon fill="#709E32" points="325.539,67.624 307.894,270.393 121.275,318.264 116.846,84.447 "/>
	<polygon fill="#466320" points="121.275,318.264 42.332,228.883 32.46,52.145 116.846,84.447 "/>
	<polygon fill="#567927" points="116.846,84.447 32.46,52.145 197.515,43.343 325.539,67.624 "/>
</g>
<g
	id="g4"
	transform="matrix(0.151775,-0.151775,0.151775,0.151775,300,175)">
	<polygon fill="#709E32" points="325.539,67.624 307.894,270.393 121.275,318.264 116.846,84.447 "/>
	<polygon fill="#466320" points="121.275,318.264 42.332,228.883 32.46,52.145 116.846,84.447 "/>
	<polygon fill="#567927" points="116.846,84.447 32.46,52.145 197.515,43.343 325.539,67.624 "/>
</g>
<g
	id="g5"
	transform="matrix(0.151775,-0.151775,0.151775,0.151775,300,200)">
	<polygon fill="#709E32" points="325.539,67.624 307.894,270.393 121.275,318.264 116.846,84.447 "/>
	<polygon fill="#466320" points="121.275,318.264 42.332,228.883 32.46,52.145 116.846,84.447 "/>
	<polygon fill="#567927" points="116.846,84.447 32.46,52.145 197.515,43.343 325.539,67.624 "/>
</g>
<g
	id="g6"
	transform="matrix(0.151775,-0.151775,0.151775,0.151775,300,225)">
	<polygon fill="#709E32" points="325.539,67.624 307.894,270.393 121.275,318.264 116.846,84.447 "/>
	<polygon fill="#466320" points="121.275,318.264 42.332,228.883 32.46,52.145 116.846,84.447 "/>
	<polygon fill="#567927" points="116.846,84.447 32.46,52.145 197.515,43.343 325.539,67.624 "/>
</g>
<g
	id="g7"
	transform="matrix(0.151775,-0.151775,0.151775,0.151775,300,250)">
	<polygon fill="#709E32" points="325.539,67.624 307.894,270.393 121.275,318.264 116.846,84.447 "/>
	<polygon fill="#466320" points="121.275,318.264 42.332,228.883 32.46,52.145 116.846,84.447 "/>
	<polygon fill="#567927" points="116.846,84.447 32.46,52.145 197.515,43.343 325.539,67.624 "/>
</g>
<g
	id="g8"
	transform="matrix(0.151775,-0.151775,0.151775,0.151775,300,275)">
	<polygon fill="#709E32" points="325.539,67.624 307.894,270.393 121.275,318.264 116.846,84.447 "/>
	<polygon fill="#466320" points="121.275,318.264 42.332,228.883 32.46,52.145 116.846,84.447 "/>
	<polygon fill="#567927" points="116.846,84.447 32.46,52.145 197.515,43.343 325.539,67.624 "/>
</g>
<g
	id="g0"
	transform="matrix(0.151775,-0.151775,0.151775,0.151775,325,75)">
	<polygon fill="#6c815d" fill-opacity="0.25" points="325.539,67.624 307.894,270.393 121.275,318.264 116.846,84.447 "/>
	<polygon fill="#404d37" fill-opacity="0.25" points="121.275,318.264 42.332,228.883 32.46,52.145 116.846,84.447 "/>
	<polygon fill="#5f7152" fill-opacity="0.25" points="116.846,84.447 32.46,52.145 197.515,43.343 325.539,67.624 "/>
</g>
<g
	id="g1"
	transform="matrix(0.151775,-0.151775,0.151775,0.151775,325,100)">
	<polygon fill="#6c815d" fill-opacity="0.25" points="325.539,67.624 307.894,270.393 121.275,318.264 116.846,84.447 "/>
	<polygon fill="#404d37" fill-opacity="0.25" points="121.275,318.264 42.332,228.883 32.46,52.145 116.846,84.447 "/>
	<polygon fill="#5f7152" fill-opacity="0.25" points="116.846,84.447 32.46,52.145 197.515,43.343 325.539,67.624 "/>
</g>
<g
	id="g2"
	transform="matrix(0.151775,-0.151775,0.151775,0.151775,325,125)">
	<polygon fill="#6c815d" fill-opacity="0.25" points="325.539,67.624 307.894,270.393 121.275,318.264 116.846,84.447 "/>
	<polygon fill="#404d37" fill-opacity="0.25" points="121.275,318.264 42.332,228.883 32.46,52.145 116.846,84.447 "/>
	<polygon fill="#5f7152" fill-opacity="0.25" points="116.846,84.447 32.46,52.145 197.515,43.343 325.539,67.624 "/>
</g>
<g
	id="g3"
	transform="matrix(0.151775,-0.151775,0.151775,0.151775,325,150)">
	<polygon fill="#6c815d" fill-opacity="0.25" points="325.539,67.624 307.894,270.393 121.275,318.264 116.846,84.447 "/>
	<polygon fill="#404d37" fill-opacity="0.25" points="121.275,318.264 42.332,228.883 32.46,52.145 116.846,84.447 "/>
	<polygon fill="#5f7152" fill-opacity="0.25" points="116.846,84.447 32.46,52.145 197.515,43.343 325.539,67.624 "/>
</g>
<g
	id="g4"
	transform="matrix(0.151775,-0.151775,0.151775,0.151775,325,175)">
	<polygon fill="#6c815d" fill-opacity="0.25" points="325.539,67.624 307.894,270.393 121.275,318.264 116.846,84.447 "/>
	<polygon fill="#404d37" fill-opacity="0.25" points="121.275,318.264 42.332,228.883 32.46,52.145 116.846,84.447 "/>
	<polygon fill="#5f7152" fill-opacity="0.25" points="116.846,84.447 32.46,52.145 197.515,43.343 325.539,67.624 "/>
</g>
<g
	id="g5"
	transform="matrix(0.151775,-0.151775,0.151775,0.151775,325,200)">
	<polygon fill="#6c815d" fill-opacity="0.25" points="325.539,67.624 307.894,270.393 121.275,318.264 116.846,84.447 "/>
	<polygon fill="#404d37" fill-opacity="0.25" points="121.275,318.264 42.332,228.883 32.46,52.145 116.846,84.447 "/>
	<polygon fill="#5f7152" fill-opacity="0.25" points="116.846,84.447 32.46,52.145 197.515,43.343 325.539,67.624 "/>
</g>
<g
	id="g6"
	transform="matrix(0.151775,-0.151775,0.151775,0.151775,325,225)">
	<polygon fill="#6c815d" fill-opacity="0.25" points="325.539,67.624 307.894,270.393 121.275,318.264 116.846,84.447 "/>
	<polygon fill="#404d37" fill-opacity="0.25" points="121.275,318.264 42.332,228.883 32.46,52.145 116.846,84.447 "/>
	<polygon fill="#5f7152" fill-opacity="0.25" points="116.846,84.447 32.46,52.145 197.515,43.343 325.539,67.624 "/>
</g>
<g
	id="g7"
	transform="matrix(0.151775,-0.151775,0.151775,0.151775,325,250)">
	<polygon fill="#6c815d" fill-opacity="0.25" points="325.539,67.624 307.894,270.393 121.275,318.264 116.846,84.447 "/>
	<polygon fill="#404d37" fill-opacity="0.25" points="121.275,318.264 42.332,228.883 32.46,52.145 116.846,84.447 "/>
	<polygon fill="#5f7152" fill-opacity="0.25" points="116.846,84.447 32.46,52.145 197.515,43.343 325.539,67.624 "/>
</g>
<g
	id="g8"
	transform="matrix(0.151775,-0.151775,0.151775,0.151775,325,275)">
	<polygon fill="#6c815d" fill-opacity="0.25" points="325.539,67.624 307.894,270.393 121.275,318.264 116.846,84.447 "/>
	<polygon fill="#404d37" fill-opacity="0.25" points="121.275,318.264 42.332,228.883 32.46,52.145 116.846,84.447 "/>
	<polygon fill="#5f7152" fill-opacity="0.25" points="116.846,84.447 32.46,52.145 197.515,43.343 325.539,67.624 "/>
</g>
</svg>
